<?xml version="1.0" encoding="UTF-8"?>
<svg id="Layer_2" data-name="Layer 2" xmlns="http://www.w3.org/2000/svg" viewBox="0 0 184.34 184.34">
  <defs>
    <style>
      .cls-1 {
        fill: #c8bfae;
      }

      .cls-1, .cls-2, .cls-3, .cls-4, .cls-5, .cls-6, .cls-7, .cls-8, .cls-9, .cls-10, .cls-11, .cls-12, .cls-13, .cls-14, .cls-15, .cls-16, .cls-17, .cls-18, .cls-19, .cls-20, .cls-21, .cls-22, .cls-23, .cls-24, .cls-25, .cls-26, .cls-27 {
        fill-rule: evenodd;
      }

      .cls-2 {
        fill: #42464c;
      }

      .cls-3 {
        fill: #43464c;
      }

      .cls-4 {
        fill: #b26f4e;
      }

      .cls-5 {
        fill: #e8be50;
      }

      .cls-6 {
        fill: #d2a283;
      }

      .cls-7 {
        fill: #d97b1d;
      }

      .cls-8 {
        fill: #e2cb9b;
      }

      .cls-9 {
        fill: #aa9d86;
      }

      .cls-10 {
        fill: #c2a163;
      }

      .cls-11 {
        fill: #c4a671;
      }

      .cls-12 {
        fill: #8dbdc4;
      }

      .cls-13 {
        fill: #c75213;
      }

      .cls-14 {
        fill: #f5ea9d;
      }

      .cls-15 {
        fill: #9e9280;
      }

      .cls-16 {
        fill: #f0d590;
      }

      .cls-28 {
        fill: #fff;
      }

      .cls-17 {
        fill: #9b8b79;
      }

      .cls-18 {
        fill: #d8b776;
      }

      .cls-19 {
        fill: #d4ad67;
      }

      .cls-29 {
        fill: none;
        stroke: #fff;
        stroke-miterlimit: 10;
        stroke-width: 1px;
      }

      .cls-20 {
        fill: #efc670;
      }

      .cls-21 {
        fill: #799ea5;
      }

      .cls-30 {
        fill: #d8dfef;
      }

      .cls-22 {
        fill: #928475;
      }

      .cls-31 {
        fill: #022066;
      }

      .cls-23 {
        fill: #d6b46d;
      }

      .cls-24 {
        fill: #dac287;
      }

      .cls-25 {
        fill: #beb4a6;
      }

      .cls-26 {
        fill: #646a78;
      }

      .cls-27 {
        fill: #d3ad50;
      }

      .cls-32 {
        fill: #0f6aab;
      }
    </style>
  </defs>
  <g id="Layer_2-2" data-name="Layer 2">
    <g id="OBJECTS">
      <g>
        <circle class="cls-31" cx="92.17" cy="92.17" r="92.17"/>
        <circle class="cls-32" cx="92.17" cy="92.17" r="85.92"/>
        <circle class="cls-28" cx="92.17" cy="92.17" r="76.12"/>
        <circle class="cls-29" cx="92.17" cy="92.17" r="82.21"/>
        <path class="cls-30" d="M92.17,16.04h-.19v152.24h.19c42.04,0,76.12-34.08,76.12-76.12S134.21,16.04,92.17,16.04Z"/>
        <g>
          <path class="cls-31" d="M73.03,38.16c1.01,2.28-.08,4.46-2.82,5.66l-2.06.91,1.25,2.82-2.37,1.04-4.52-10.24,4.43-1.96c2.74-1.21,5.07-.54,6.09,1.75v.02ZM70.63,39.22c-.5-1.13-1.52-1.46-2.97-.82l-1.93.85,1.57,3.56,1.93-.85c1.45-.64,1.89-1.62,1.4-2.73h0Z"/>
          <path class="cls-31" d="M74.86,33.48l2.53-.55,1.93,8.88,5.49-1.19.45,2.06-8.02,1.75s-2.38-10.95-2.38-10.95Z"/>
          <path class="cls-31" d="M93.53,40.1l-5.2.08-.95,2.41-2.65.04,4.81-11.27,2.56-.04,5.19,11.11-2.72.04-1.03-2.38h-.01ZM92.69,38.15l-1.84-4.26-1.71,4.31,3.55-.06h0Z"/>
          <path class="cls-31" d="M110.43,34.14l-2.56,10.91-2.07-.49-3.88-7.9-1.56,6.62-2.49-.59,2.56-10.91,2.09.49,3.87,7.9,1.56-6.62,2.49.59h-.01Z"/>
          <path class="cls-31" d="M111.74,40.42c1.55-2.95,4.99-3.93,8.12-2.29,3.12,1.63,4.29,5.01,2.74,7.98-1.55,2.96-5,3.92-8.12,2.29-3.13-1.64-4.29-5.03-2.74-7.98ZM120.27,44.9c.99-1.88.33-3.87-1.44-4.8s-3.78-.34-4.77,1.55-.33,3.87,1.44,4.8,3.78.34,4.77-1.55Z"/>
        </g>
        <g>
          <path class="cls-31" d="M77.99,151.47c-.63,1.7-2.35,2.18-4.93,1.22l-5.09-1.89,3.66-9.84,4.81,1.79c2.46.92,3.34,2.41,2.77,3.95-.37.98-1.15,1.55-2.11,1.68.97.76,1.35,1.87.89,3.1h0ZM75.79,150.37c.31-.83-.18-1.46-1.36-1.9l-2.66-.99-.91,2.43,2.66.99c1.18.44,1.95.31,2.26-.53h.01ZM73.25,143.51l-.86,2.32,2.26.84c1.11.41,1.86.25,2.15-.53.29-.77-.17-1.38-1.29-1.79l-2.26-.84h0Z"/>
          <path class="cls-31" d="M81.61,144.52l4.74.57c3.41.41,5.5,2.74,5.12,5.9s-2.96,4.93-6.37,4.52l-4.74-.57,1.25-10.42ZM85.22,153.52c2.07.25,3.57-.83,3.81-2.82.24-2-.97-3.39-3.04-3.64l-2.2-.26-.77,6.46,2.2.26Z"/>
          <path class="cls-31" d="M93.18,150.82l4.24-.25.11,1.87-4.24.25-.11-1.87Z"/>
          <path class="cls-31" d="M99.06,150.44c-.75-3.38.7-5.72,3.22-6.27,2.53-.56,4.82.95,5.57,4.33s-.69,5.71-3.22,6.27c-2.52.56-4.82-.95-5.57-4.33ZM105.46,149.03c-.51-2.33-1.55-3.11-2.73-2.85-1.17.26-1.78,1.41-1.26,3.74.51,2.33,1.55,3.11,2.72,2.86,1.19-.26,1.79-1.41,1.28-3.74h0Z"/>
          <path class="cls-31" d="M110.92,141.57l3.86,9.76-2.26.89-3.14-7.95-1.95.77-.72-1.81,4.21-1.66Z"/>
        </g>
        <path class="cls-9" d="M62.67,92.26v-.11.11ZM62.66,104.79v-12.51,12.51ZM121.81,104.8v-12.43,12.43ZM91.98,94.46c-5.32,0-9.64,4.32-9.64,9.64s4.32,9.65,9.64,9.65h0c5.33,0,9.64-4.32,9.64-9.64s-4.31-9.64-9.64-9.64h0ZM91.98,114.97h0c-2.9,0-5.63-1.13-7.68-3.18s-3.18-4.78-3.18-7.68,1.13-5.63,3.18-7.68,4.78-3.18,7.68-3.18h0c2.62,0,5.02.93,6.9,2.48,2.42,1.99,3.96,5.01,3.96,8.38,0,2.9-1.13,5.63-3.18,7.67-2.05,2.05-4.78,3.18-7.67,3.18h-.01ZM91.98,92.91c-6.17,0-11.2,5.02-11.2,11.2,0,2.99,1.16,5.8,3.28,7.92.26.26.53.5.81.73,2,1.65,4.48,2.55,7.11,2.55h0c2.99,0,5.8-1.16,7.92-3.28s3.28-4.92,3.28-7.92c0-6.18-5.02-11.2-11.19-11.2h0ZM111.83,117.3h-31.44v-.91c0-.11-.33-.22-.9-.31-.4-.09-1.1-.16-2-.22-.92-.06-2.06-.09-3.29-.09-.88,0-1.71.02-2.45.05-.89-1.26-2.06-2.41-3.49-3.35-1.14-.75-2.34-1.3-3.55-1.66v-12.05c1.21-.35,2.41-.9,3.55-1.66,1.98-1.3,3.47-3.01,4.38-4.83h39.18c.91,1.83,2.4,3.54,4.38,4.84.95.63,1.94,1.11,2.95,1.47v12.43c-1.01.35-2,.84-2.95,1.46-1.97,1.3-3.46,3-4.37,4.82h0ZM62.67,117.42v-.14.14ZM121.8,117.43v-.11h0v-.09.2h0ZM64.27,119.58c-.88-.35-1.52-1.18-1.6-2.16h0v.03s0,.07,0,.1v.03s0,.06.02.09v.04s0,.05.02.08c0,.01,0,.03,0,.04,0,.02,0,.05.02.07,0,.02,0,.04.02.05,0,.02,0,.04.02.07,0,.02,0,.03.02.05,0,.02,0,.04.02.06,0,.02,0,.03.02.05,0,.02.02.04.02.06s.02.04.02.05c0,.02.02.04.03.06,0,.02.02.04.03.05,0,.02.02.03.03.05,0,.02.02.04.03.05,0,.02.02.03.03.05,0,.02.02.04.03.05s.02.03.03.05c0,.02.02.03.04.05,0,.02.02.03.03.05,0,.02.03.03.04.05s.02.03.04.04c0,.02.03.03.04.05,0,.01.02.03.04.04,0,.02.03.03.04.04,0,.02.03.03.04.04,0,.02.03.03.04.04.02.02.03.03.04.04.02.02.03.03.05.04,0,.01.03.02.04.04.02.01.03.02.05.04.02.01.03.02.04.03.02.01.03.03.05.04s.03.02.05.03.03.02.05.03.03.02.05.03.03.02.05.03c.02,0,.03.02.05.03.02,0,.04.02.05.03.02,0,.04.02.05.03.02,0,.04.02.06.03.02,0,.04.02.06.02s.04.01.05.02h.02v.02ZM119.26,119.77h-27.03,18.73s8.3,0,8.3,0ZM119.26,119.77h.42s.05,0,.07-.01c.02,0,.04,0,.05-.01.02,0,.04,0,.07-.01.02,0,.04-.01.05-.02.02,0,.04,0,.06-.02.02,0,.04-.01.05-.02.02,0,.04-.01.06-.02.02,0,.04-.01.06-.02.02,0,.04-.02.06-.02s.04-.02.05-.02c.02,0,.04-.02.06-.02s.04-.02.05-.03c.02,0,.04-.02.05-.03.02,0,.03-.02.05-.03.02-.01.04-.02.05-.03.02,0,.03-.02.05-.03.02-.01.04-.02.05-.03.02,0,.03-.02.05-.03.02-.01.03-.02.05-.03.02-.01.03-.02.05-.04.02-.01.03-.02.05-.04.02-.01.03-.02.05-.04.02-.01.03-.02.04-.04.02-.01.03-.03.04-.04.02-.01.03-.03.04-.04.01-.02.03-.03.04-.04l.04-.04.04-.04.04-.04.04-.04s.03-.03.04-.04c.01-.02.03-.03.04-.05.01-.02.02-.03.04-.05.01-.02.02-.03.03-.05.01-.01.02-.03.03-.05.01-.02.02-.03.03-.05.01-.02.02-.04.03-.05.01-.02.02-.03.03-.05.01-.02.02-.04.03-.06s.02-.03.03-.05c0-.02.02-.04.03-.06,0-.02.02-.03.02-.05s.02-.04.02-.06.02-.04.02-.05c0-.02.02-.04.02-.06s.01-.03.02-.05c0-.02.01-.04.02-.07,0-.02,0-.03.02-.05,0-.02.01-.05.02-.07,0-.02,0-.03.01-.05,0-.03.01-.05.02-.08v-.04s.01-.06.01-.09v-.03s.01-.07.02-.1v-.02h0c-.1,1.3-1.2,2.33-2.54,2.33l.03-.03Z"/>
        <path class="cls-17" d="M119.26,119.77h-38.28v-.18c.69-.09,1.12-.21,1.18-.33h0v-1.12s.05-.03.07-.05c.02-.02.04-.04.05-.07s.02-.06.02-.1-.01-.07-.02-.1c-.03-.06-.07-.08-.11-.11-.08-.05-.18-.09-.3-.12-.22-.06-.52-.12-.9-.17-.18-.02-.37-.05-.58-.07v-.05h31.44c.91-1.81,2.4-3.51,4.37-4.81.95-.63,1.94-1.11,2.95-1.46v-12.43c-1-.35-1.99-.84-2.94-1.47-1.97-1.3-3.47-3.01-4.38-4.83h-39.18c-.91,1.81-2.4,3.52-4.38,4.82-1.14.75-2.35,1.3-3.55,1.66v12.05c1.2.35,2.41.9,3.55,1.66,1.43.94,2.6,2.1,3.49,3.35-.56.02-1.07.05-1.51.09-.51.04-.92.09-1.21.15-.04,0-.08.01-.11.02-.57.09-.9.2-.9.31v1.33s.02.05.05.08c.09.07.3.14.61.2.29.06.67.11,1.12.15v1.06c-.06.01-.12.02-.18.03-.02,0-.05,0-.07.01-.71-.26-1.47-.41-2.27-.41-1.09,0-2.12.27-3.02.74h-.02s-.04-.02-.05-.02c-.02,0-.04-.02-.06-.02s-.04-.02-.06-.03c-.02,0-.03-.02-.05-.03-.02,0-.04-.02-.05-.03-.02,0-.03-.02-.05-.03-.02,0-.03-.02-.05-.03-.02,0-.03-.02-.05-.03s-.03-.02-.05-.03-.03-.02-.05-.03-.03-.02-.05-.04c-.02-.01-.03-.02-.04-.03-.02-.01-.03-.03-.05-.04,0-.01-.03-.02-.04-.04-.02-.01-.03-.03-.05-.04,0-.01-.03-.02-.04-.04-.02-.01-.03-.03-.04-.04,0-.01-.03-.02-.04-.04,0-.01-.03-.03-.04-.04,0-.01-.02-.03-.04-.04,0-.02-.03-.03-.04-.05s-.02-.03-.04-.04c0-.01-.03-.03-.04-.05s-.02-.03-.03-.05c0-.02-.02-.03-.04-.05,0-.02-.02-.03-.03-.05,0-.02-.02-.04-.03-.05,0-.02-.02-.03-.03-.05,0-.02-.02-.04-.03-.05,0-.02-.02-.03-.03-.05,0-.02-.02-.04-.03-.05,0-.02-.02-.04-.03-.06,0-.02-.02-.04-.02-.05,0-.02-.02-.04-.02-.06s-.02-.04-.02-.05c0-.02-.02-.04-.02-.06s0-.04-.02-.05c0-.02,0-.04-.02-.07,0-.01,0-.03-.02-.05,0-.02,0-.05-.02-.07,0-.01,0-.03,0-.04,0-.03,0-.05-.02-.08v-.04s0-.06,0-.09v-.03s0-.07-.02-.1v-.02h0v-25.27c.11-1.3,1.2-2.33,2.53-2.33h45.76s8.3.01,8.3.01c1.38,0,2.5,1.1,2.54,2.46v25.03h0v.11h0v.03s0,.07-.01.1v.03s-.01.06-.02.09v.04s-.01.05-.02.08c0,.02,0,.03-.01.05,0,.02-.01.05-.02.07,0,.02,0,.03-.02.05,0,.02-.01.05-.02.07,0,.02-.01.04-.02.05,0,.02-.01.04-.02.06,0,.02-.01.04-.02.05,0,.02-.02.04-.02.06s-.02.04-.02.05c0,.02-.02.04-.03.06,0,.02-.02.03-.03.05,0,.02-.02.04-.03.06,0,.02-.02.03-.03.05,0,.02-.02.03-.03.05-.01.02-.02.03-.03.05-.01.02-.02.04-.03.05-.01.02-.02.03-.03.05-.01.01-.02.03-.04.05-.01.01-.02.03-.04.05-.01.01-.02.03-.04.04l-.04.04s-.03.03-.04.04c-.01.02-.03.03-.04.04l-.04.04-.04.04-.04.04-.04.04-.04.04s-.03.03-.05.04c-.02.01-.03.02-.05.04-.02.01-.03.02-.05.04-.02,0-.03.02-.05.03-.02.01-.03.02-.05.03-.02.01-.03.02-.05.03-.02,0-.03.02-.05.03-.02.01-.04.02-.05.03-.02,0-.03.02-.05.03-.02,0-.04.02-.05.03-.02,0-.03.02-.05.03-.02,0-.04.02-.06.02s-.04.02-.05.02c-.02,0-.04.01-.06.02-.02,0-.04.01-.06.02-.02,0-.04.02-.06.02s-.04.01-.05.02c-.02,0-.04.01-.06.02-.02,0-.04.01-.05.02-.02,0-.04,0-.07.01-.02,0-.04,0-.05.01-.02,0-.04,0-.07.01h-.42"/>
        <path class="cls-17" d="M91.98,93.25c-2.9,0-5.63,1.13-7.68,3.18s-3.18,4.78-3.18,7.68,1.13,5.63,3.18,7.68,4.78,3.18,7.68,3.18h0c2.9,0,5.63-1.13,7.67-3.18,2.05-2.05,3.18-4.78,3.18-7.67,0-3.37-1.54-6.39-3.96-8.38-1.88-1.55-4.28-2.48-6.9-2.48h0M91.98,115.31h0c-2.62,0-5.11-.9-7.11-2.55-.28-.23-.55-.48-.81-.73-2.11-2.12-3.28-4.93-3.28-7.92,0-6.18,5.02-11.2,11.2-11.2h0c6.17,0,11.2,5.03,11.19,11.2,0,2.99-1.17,5.8-3.28,7.92-2.12,2.12-4.93,3.28-7.92,3.28h0Z"/>
        <path class="cls-17" d="M86.97,106.22v3.12c1.27.55,2.59.86,3.97.92v2.46h1.94v-2.51c1.28-.16,2.25-.57,2.92-1.22.67-.66,1-1.51,1-2.57,0-.94-.29-1.7-.86-2.29-.57-.59-1.51-1.12-2.82-1.59-.65-.22-1.15-.41-1.52-.58-.36-.17-.62-.32-.76-.45-.15-.13-.22-.3-.22-.51,0-.24.1-.42.3-.54.2-.12.56-.18,1.06-.18,1.05,0,2.24.3,3.54.89l1.12-2.68c-1.27-.54-2.52-.85-3.77-.92v-2.07h-1.94v2.09c-1.33.14-2.33.5-2.99,1.08-.66.58-1,1.39-1,2.42,0,.68.11,1.24.33,1.7s.58.86,1.07,1.23,1.13.7,1.93.99c.71.26,1.27.48,1.69.66.42.18.71.34.89.49s.27.32.27.53c0,.3-.12.51-.37.64s-.64.19-1.17.19h0c-.65,0-1.4-.12-2.25-.37s-1.64-.56-2.37-.93M91.98,113.75h0c-5.33,0-9.64-4.32-9.64-9.65s4.32-9.64,9.64-9.64h0c5.33,0,9.64,4.32,9.64,9.64s-4.32,9.64-9.64,9.64h0Z"/>
        <path class="cls-9" d="M92.88,112.72h-1.95v-2.46c-1.37-.06-2.69-.37-3.97-.92v-3.12c.73.37,1.52.68,2.37.93.85.25,1.6.37,2.25.37h0c.53,0,.92-.06,1.17-.19.25-.13.37-.34.37-.64,0-.21-.09-.38-.27-.53-.18-.14-.48-.31-.89-.49-.42-.18-.98-.4-1.69-.66-.8-.3-1.44-.63-1.93-.99-.49-.37-.84-.78-1.07-1.23-.22-.46-.33-1.02-.33-1.7,0-1.03.33-1.84,1-2.42.66-.58,1.66-.94,2.99-1.08v-2.09h1.95v2.07c1.25.07,2.5.38,3.77.92l-1.12,2.68c-1.31-.59-2.49-.89-3.54-.89-.5,0-.85.06-1.06.18-.2.12-.3.3-.3.54,0,.21.07.38.22.51.15.14.4.29.76.45.36.17.87.36,1.52.58,1.31.47,2.25.99,2.82,1.59.57.59.86,1.35.86,2.29,0,1.05-.34,1.91-1,2.57-.67.66-1.64,1.06-2.92,1.22v2.51h0Z"/>
        <path class="cls-3" d="M92.89,126.79c.01,2.17-1.13,3.75-3.13,4.59-2.08.87-4.01.47-5.6-1.07-1.55-1.51-1.93-3.41-1.18-5.43.18-.48.93-1.12,1.33-1.06.9.13,1.05.85.63,1.71-.63,1.28-.27,2.57.78,3.27.82.55,2.1.83,3.06.65,1.27-.24,2.02-1.38,2.05-2.74.05-2.5-.01-5.01.04-7.52.02-.82.35-1.63.35-2.45,0-.47-.38-.95-.51-1.25.23-1.21.59-2.16.59-3.16.04-8.39,0-16.73-.01-25.11h1.29c.04,9.24,0,18.76.04,28.15.02,3.82.26,7.6.28,11.42"/>
        <path class="cls-2" d="M92.61,54.95c-.04-2.08.02-4.16-.04-6.24-.01-.42-.39-.83-.6-1.24-.21.4-.6.8-.61,1.2-.06,2.18-.02,4.37-.03,6.56,0,.92-.3,1.51-1.1,1.75h0c.09.05.19.11.3.16.14.06.3.12.48.16h.04c.12.04.28.06.42.08.03,0,.05,0,.08,0,.05,0,.09,0,.12.02l.41.02h.1l.38-.03h.03l.21-.03c.31-.04.64-.1,1.01-.19.16-.04.32-.09.48-.14-1.32-.16-1.63-.96-1.65-2.1"/>
        <path class="cls-7" d="M90.52,57.14h-.01c-5.27,1.81-9.23,4.77-12.21,8.2-.37.43-.73.86-1.07,1.3-.26.33-.5.67-.74,1-.16.22-.32.45-.47.68-.23.34-.45.69-.67,1.03-.14.23-.28.46-.42.69-.07.12-.14.23-.2.35-.2.35-.39.7-.58,1.05-.12.24-.24.47-.36.7-.06.12-.12.23-.17.35-.12.23-.22.47-.33.7-.11.23-.21.47-.32.7-.2.47-.38.94-.56,1.4-3.03,7.67-3.08,14.66-3.08,14.82h-.02c-.85-2.49-2.33-4.22-4.92-4.57-2.54-.34-4.4.86-6,3.26.59-7.38,2.94-13.61,7.3-19,6.16-7.64,14.17-11.9,23.97-12.73.21-.02.4-.05.57-.1h0c.09.05.19.11.3.16"/>
        <polygon class="cls-12" points="80.61 90.27 80.61 90.24 80.62 90.27 80.62 90.27 80.62 90.28 80.61 90.28 80.61 90.27"/>
        <path class="cls-13" d="M91.04,57.35v-.02h-.02c-8.35,7.95-10.01,24.87-10.33,30.82-.01.28-.03.53-.04.77-.01.29-.02.53-.02.73v.09c0,.26-.01.42-.01.5-1.02-3.02-2.79-4.82-5.99-4.71-2.42.08-4.16,1.48-5.3,4.59h0c0-.19.06-7.16,3.08-14.82.18-.46.36-.93.57-1.4.1-.23.2-.47.31-.7.11-.23.22-.47.33-.7.06-.12.11-.24.17-.35.12-.23.24-.47.36-.7.18-.35.38-.7.58-1.05.07-.12.13-.23.2-.35.14-.23.28-.46.42-.69.21-.34.44-.69.67-1.03.15-.23.31-.45.47-.68.24-.34.49-.67.74-1,.34-.44.7-.88,1.07-1.3,2.98-3.43,6.94-6.39,12.21-8.2v.03c.15.06.31.06.49.2h.02l.02-.02h0Z"/>
        <path class="cls-7" d="M114.58,90.22c-1.34-3.36-3.08-4.75-5.8-4.71-2.59.04-4.37,1.5-5.52,4.61,0-.3.08-16.36-10.48-32.74.31-.04.64-.1,1.01-.19,23.5,10.08,20.8,33.03,20.8,33.03"/>
        <path class="cls-13" d="M126.26,90.77c-1.13-3.31-2.99-5.58-6.74-5.21-2.7.27-4.2,2.07-4.94,4.66,0,0,2.56-22.52-20.8-33.03.16-.04.32-.09.48-.14.09,0,.18.02.28.02,14.43.71,27.29,11.36,30.66,25.42.64,2.67.88,5.43,1.06,8.28"/>
        <path class="cls-7" d="M91.65,57.42s.54,33.4.44,33.06c-.24-.82-.82-2.07-1.7-2.95-1.52-1.5-3.11-2.41-5.69-1.83-2.22.5-3.43,2.2-4.08,4.56h-.08v-.03c0-.07.04-.24.04-.5,0-.03.02-.06.02-.09,0-.2.02-.45.04-.73,0-.23.03-.45.04-.73.32-5.95,1.97-22.85,10.32-30.81h0s.31.03.45.05h.2"/>
        <path class="cls-13" d="M92.78,57.39l-1.12.03s.4.02,0,0l.43,33.06s.28-1.75,1.44-2.97c1.94-2.02,6.08-3.53,9.04,1.12.28.44.41.94.7,1.49h0c0-.3.06-16.36-10.49-32.74"/>
        <path class="cls-26" d="M123.23,123.01l2.99,7.14s.01.04.02.06c.1.38-.36.68-1.07.68l-28.77.05c-.71,0-1.15-.29-1.02-.67,0-.02.02-.04.02-.06l3.52-7.15v-.02c.22-.39.83-.71,1.38-.71l21.6-.05c.55,0,1.13.31,1.31.71v.02h.02Z"/>
        <path class="cls-12" d="M123.22,122.74c-.18-.39-.76-.7-1.31-.7h-3.31l-14.97.04h-3.32c-.55,0-1.15.32-1.36.72v.02l-.98,1.96-1.59,3.23-.96,1.96v.03l-.02.03h0v.03h-.01v.03h0v.07h0v.15h.01v.03h0v.05h.02v.03h.02v.03h.03s.02,0,.02,0v.02h.03l.02.02h.02l.02.02h.02l.02.02h.02l.02.02h.02l.02.02h.02l.02.02h.02l.02.02h.02l.02.02h.03l.02.02h.06s.03,0,.03,0h.09s.03,0,.03,0h4.74l19.93-.04h4.87s.03,0,.03,0h.03s.03,0,.03,0l.03-.02h.05s.02,0,.02,0l.02-.02h.02l.02-.02h.02l.02-.02h.02l.02-.02h.02l.02-.02h.02l.02-.02h.02l.02-.02h.01l.02-.03h.02v-.03h.02v-.03h.02v-.03h.01v-.05h.02v-.05s.01-.02.01-.02v-.02s.01-.02.01-.02h0v-.11h0v-.04h0v-.04h0v-.04s-.01-.02-.01-.02l-.83-1.96-1.35-3.22-.82-1.96v-.03h.02ZM124.16,128.12c-.46.1-.9.24-1.31.42-.87.37-1.48.87-1.82,1.39l-20.43.04c-.29-.52-.87-1.01-1.72-1.38-.48-.22-1.01-.37-1.56-.47l1.6-3.46c.57-.1,1.17-.26,1.75-.48.99-.38,1.8-.87,2.36-1.39l16.08-.04c.52.52,1.29,1.01,2.26,1.38.47.18.96.32,1.43.42l1.35,3.57h0Z"/>
        <path class="cls-26" d="M122.53,122.4l2.99,7.14s.01.04.02.06c.1.38-.36.67-1.07.68l-28.77.05c-.71,0-1.15-.29-1.02-.67,0-.02.01-.04.02-.06l3.52-7.15v-.02c.22-.39.83-.71,1.38-.71l21.6-.05c.55,0,1.13.31,1.31.7v.02h.02Z"/>
        <path class="cls-12" d="M122.52,122.13c-.18-.39-.76-.71-1.31-.7h-3.31l-14.97.04h-3.32c-.55,0-1.15.32-1.36.72v.03l-.98,1.96-1.59,3.22-.96,1.96v.03h-.01v.03h-.01v.03h0v.04h0v.04h0v.17h.01v.03h.01v.03l.02.02h.01v.03h.01v.03h.02v.02s.03.02.03.02h.01l.02.02h.02l.02.02h.02l.02.02h.02l.02.02h.02l.02.02h.02l.02.02h.02l.02.02h.02l.02.02h.05s.03,0,.03,0l.03.02h.06s.03,0,.03,0h.03s.03,0,.03,0h4.77l19.93-.04h4.86s.02,0,.02,0h.03s.03,0,.03,0h.03s.02,0,.02,0l.02-.02h.02l.03-.02h.02l.02-.02h.02l.02-.02h.02l.02-.02h.02l.02-.02h.02l.02-.02h.02l.02-.02.02-.02h.02v-.02s.01-.02.01-.02h.03s.01,0,.01,0v-.03s.01-.02.01-.02h.02v-.03h.02v-.03l.02-.02v-.04s.01-.02.01-.02h.01v-.07h0v-.03h0v-.03h0v-.04h0v-.04h0v-.04s-.01-.03-.01-.03l-.83-1.96-1.35-3.22-.82-1.96v-.03l-.03-.02ZM123.46,127.52c-.46.1-.9.24-1.31.42-.87.38-1.49.87-1.82,1.39l-20.43.03c-.29-.52-.87-1.01-1.72-1.38-.48-.22-1.01-.37-1.56-.47l1.6-3.46c.57-.1,1.17-.26,1.75-.48,1-.38,1.8-.87,2.36-1.39l16.08-.03c.52.52,1.29,1.01,2.26,1.38.47.18.96.32,1.43.42l1.35,3.57h0Z"/>
        <path class="cls-26" d="M123.23,121.84l2.99,7.14s.01.04.02.06c.1.38-.36.68-1.07.68l-28.77.05c-.71,0-1.15-.29-1.02-.67,0-.02.02-.04.02-.06l3.52-7.15v-.02c.22-.39.83-.71,1.38-.71l21.6-.04c.55,0,1.13.31,1.31.7v.02h.02Z"/>
        <path class="cls-12" d="M123.22,121.57c-.18-.39-.76-.7-1.31-.7h-3.31l-14.97.04h-3.32c-.55,0-1.15.32-1.36.72v.02l-.98,1.96-1.59,3.23-.96,1.96v.02l-.02.04h0v.03h-.01v.03h0v.1h0v.05h0v.05h.01v.03l.02.02h0v.03h.01v.03h.02v.03h.02l.02.02h.01l.02.02h.02l.02.03h.02l.02.02h.02l.02.02h.02l.02.02h.02l.02.02h.02l.02.02h.02l.02.02h.02l.03.02h.05s.03,0,.03,0h.03s.03,0,.03,0h.03s.03,0,.03,0h4.78l19.93-.04h4.85s.03,0,.03,0h.03s.03,0,.03,0l.03-.02h.06s.02,0,.02,0l.02-.02h.02l.02-.02h.02l.02-.02h.02l.02-.02h.02l.02-.02h.02l.02-.02h.02l.02-.02h.02v-.02s.03-.02.03-.02h.02v-.03h.02v-.03h.02v-.03h.01v-.05h.02v-.03h.01v-.05s.01-.02.01-.02h0v-.07h0v-.03h0v-.04h0v-.04h0v-.04h-.01v-.03s-.83-1.96-.83-1.96l-1.35-3.22-.82-1.96v-.02h0ZM124.16,126.95c-.46.1-.9.24-1.31.43-.87.37-1.48.86-1.82,1.39l-20.43.04c-.29-.52-.87-1.01-1.72-1.38-.48-.22-1.01-.37-1.56-.47l1.6-3.47c.57-.1,1.17-.26,1.75-.48.99-.38,1.8-.87,2.36-1.39l16.08-.04c.52.52,1.29,1.01,2.26,1.38.47.18.96.32,1.43.42l1.35,3.57h0Z"/>
        <path class="cls-26" d="M123,121.23l2.99,7.15s.01.04.02.06c.1.38-.35.68-1.06.68l-28.77.05c-.71,0-1.15-.29-1.02-.67,0-.02.02-.04.03-.06l3.52-7.15v-.02c.22-.39.83-.71,1.38-.71l21.6-.05c.55,0,1.13.31,1.31.7v.02h0Z"/>
        <path class="cls-12" d="M122.98,120.96c-.18-.39-.76-.71-1.31-.71h-3.31l-14.97.04h-3.32c-.55,0-1.15.32-1.36.72v.02l-.98,1.96-1.59,3.22-.96,1.96v.03l-.02.03h0v.03h0v.02h0v.03h0v.1h0v.05h0v.05h.02v.03h.02s.01,0,.01,0v.03h.02v.03h.02l.02.03h.01l.02.02h.02l.02.02h.02l.02.02h.02l.02.02h.02l.02.02h.02l.02.02h.02l.02.02h.02l.02.02h.04s.03,0,.03,0l.02.02h.11s.03,0,.03,0h4.77l19.93-.04h4.84s.02,0,.02,0l.03-.02h.05s.02,0,.02,0l.02-.02h.02l.02-.02h.02l.02-.02h.02l.02-.02h.02l.02-.02h.02l.02-.02h.02l.02-.02h.02l.02-.02h.02l.02-.03h.01v-.03h.02v-.03h.02v-.03h.02v-.03h.01v-.05l.02-.02v-.04h.01v-.07h0v-.04h0v-.03h0v-.04h0v-.04h0v-.04s-.01-.03-.01-.03l-.83-1.96-1.35-3.22-.82-1.96v-.02l.07.07ZM123.93,126.34c-.46.1-.9.24-1.31.42-.87.38-1.49.86-1.82,1.39l-20.43.04c-.29-.52-.87-1.01-1.72-1.38-.48-.21-1.01-.37-1.56-.47l1.6-3.46c.57-.1,1.17-.26,1.75-.48.99-.38,1.8-.87,2.36-1.39l16.08-.03c.52.52,1.29,1.01,2.26,1.38.47.18.96.32,1.43.42l1.35,3.57h0Z"/>
        <path class="cls-26" d="M123.65,120.62l2.99,7.14s.02.04.02.06c.1.38-.36.67-1.07.67l-28.77.05c-.71,0-1.15-.29-1.02-.67,0-.02.02-.04.02-.06l3.52-7.15v-.02c.22-.39.83-.71,1.38-.71l21.6-.05c.55,0,1.13.31,1.31.7v.03h.02Z"/>
        <path class="cls-12" d="M123.64,120.35c-.18-.39-.76-.7-1.31-.7h-3.31l-14.97.04h-3.32c-.55,0-1.15.32-1.37.72v.02l-.98,1.96-1.59,3.22-.97,1.96v.02h-.01v.03h-.01v.04h0v.04h0v.1h0v.05h0v.05h.01v.03l.02.02h0v.03h.01v.03h.02v.03h.02v.02h.03l.02.02h.01l.02.03h.02l.02.02h.02l.02.02h.02l.02.02h.02l.02.02h.02l.02.02h.02l.02.02h.02l.03.02h.05s.03,0,.03,0h.03s.03,0,.03,0h4.83l19.93-.04h4.86s.03,0,.03,0h.03s.03,0,.03,0l.03-.02h.05s.02,0,.02,0l.02-.02h.02l.02-.02h.02l.02-.02h.02l.02-.02h.02l.02-.02h.02l.02-.02h.02l.02-.03h.02l.02-.02.02-.02h.01v-.03h.02v-.03h.02v-.03h.02v-.03h0v-.05h.01v-.05s.01-.02.01-.02h0v-.07h0v-.03h0v-.03h0v-.03h0v-.03h-.01v-.03s-.83-1.96-.83-1.96l-1.35-3.22-.82-1.96v-.02l.04-.02ZM124.59,125.73c-.46.1-.9.24-1.31.43-.87.37-1.49.86-1.82,1.39l-20.43.04c-.29-.52-.87-1.01-1.72-1.38-.48-.22-1.01-.37-1.56-.47l1.6-3.46c.58-.1,1.17-.26,1.76-.48.99-.38,1.8-.87,2.36-1.39l16.08-.04c.52.52,1.29,1.01,2.26,1.38.47.18.96.32,1.43.42l1.35,3.57h0Z"/>
        <path class="cls-26" d="M123.14,119.96l2.99,7.14s.01.04.02.06c.1.38-.36.67-1.07.68l-28.77.05c-.71,0-1.15-.29-1.02-.67,0-.02.02-.04.02-.06l3.52-7.15v-.02c.22-.39.83-.71,1.38-.71l21.6-.05c.55,0,1.13.31,1.31.7v.02h.02Z"/>
        <path class="cls-12" d="M123.13,119.69c-.18-.39-.76-.71-1.31-.7h-3.31l-14.97.04h-3.32c-.55,0-1.15.32-1.37.72v.02l-.98,1.96-1.59,3.22-.96,1.96v.03l-.02.03h0v.03h-.01v.03h0v.03h0v.03h0v.07h0v.05h.01v.03l.02.02h0v.03h0v.03h.01v.03h.02v.03h.03v.02s.03.02.03.02h.02l.02.02h.02l.02.02h.02l.02.02h.02l.02.02h.02l.02.02h.02l.02.02h.02l.02.02h.05s.02.01.02.01l.03.02h.06s.03.01.03.01h.03s.03.01.03.01h4.78l19.93-.04h4.41s.04-.01.07-.01h.38s.03-.01.03-.01h.03s.03-.01.03-.01h.03s.02-.01.02-.01l.02-.02h.02l.02-.02h.02l.02-.02h.02l.02-.02h.02l.02-.02h.02l.02-.02h.02l.02-.02h.02l.02-.02h.02v-.03h.03l.02-.03h.01v-.03h.02v-.03h.01v-.03h.01v-.03h0v-.07h.01v-.07h0v-.03h0v-.03h0v-.04h0v-.04h0v-.04s-.01-.03-.01-.03l-.83-1.96-1.35-3.22-.82-1.96v-.03l.06.02ZM124.07,125.08c-.46.1-.9.24-1.31.42-.87.38-1.49.87-1.82,1.39l-20.43.04c-.29-.52-.87-1.01-1.72-1.38-.48-.22-1.01-.37-1.56-.47l1.6-3.46c.57-.1,1.17-.26,1.75-.48.99-.37,1.8-.87,2.36-1.39l16.08-.03c.52.52,1.29,1.01,2.26,1.38.47.18.96.32,1.43.42l1.35,3.57h0Z"/>
        <path class="cls-26" d="M123.42,119.26l2.99,7.14s.01.04.02.06c.1.38-.36.68-1.07.68l-28.77.05c-.71,0-1.15-.29-1.02-.67,0-.02.02-.04.02-.06l3.52-7.15v-.02c.22-.39.83-.71,1.38-.71l21.6-.05c.55,0,1.13.31,1.31.71v.02h.02Z"/>
        <path class="cls-12" d="M123.41,118.99c-.18-.39-.76-.71-1.31-.7h-3.31l-14.97.04h-3.32c-.55,0-1.15.32-1.36.72v.02l-.98,1.96-1.59,3.23-.96,1.96v.02l-.02.04h0v.04h0v.04h0v.1h0v.05h0v.05h.01v.03l.02.02h0v.03h.01v.03h.02v.03h.02v.02h.02l.02.02h.01l.02.02h.02l.02.02h.02l.02.02h.02l.02.02h.02l.02.02h.02l.02.02h.02l.02.02h.02l.03.02h.05s.03.01.03.01h.03s.03.01.03.01h.03s.03.01.03.01h4.78l19.93-.04h4.81s.03-.01.03-.01h.02s.03-.01.03-.01h.03s.03-.01.03-.01l.03-.02h.02l.02-.02h.02l.02-.02h.02l.02-.02h.02l.02-.02h.02l.02-.02h.02l.02-.02h.02l.02-.02h.02l.02-.02h.01l.02-.03h.01l.02-.03h.01v-.03h.02v-.03h.02v-.05h.02v-.03h.01v-.05s.01-.02.01-.02h0v-.07h0v-.03h0v-.04h0v-.03h0v-.04s-.01-.02-.01-.02l-.83-1.96-1.35-3.22-.82-1.96v-.02l.03-.03ZM124.35,124.37c-.46.1-.9.24-1.31.42-.87.37-1.49.87-1.82,1.39l-20.43.04c-.29-.52-.87-1.01-1.72-1.38-.48-.22-1.01-.38-1.56-.47l1.6-3.47c.58-.1,1.17-.26,1.76-.48.99-.38,1.8-.87,2.36-1.39l16.08-.04c.52.52,1.29,1.01,2.26,1.38.47.18.96.32,1.43.42l1.35,3.57h0Z"/>
        <path class="cls-26" d="M122.67,118.56l2.99,7.15s.01.04.02.06c.1.38-.36.67-1.06.67l-28.77.05c-.71,0-1.15-.3-1.02-.67,0-.02.01-.04.02-.06l3.52-7.15v-.02c.22-.39.83-.71,1.38-.71l21.6-.04c.55,0,1.13.31,1.31.7v.02h.01Z"/>
        <path class="cls-12" d="M122.67,118.31l2.99,7.14s.01.04.02.06c.1.38-.36.68-1.06.68l-28.77.05c-.71,0-1.15-.29-1.02-.67,0-.02.02-.04.02-.06l3.52-7.15v-.02c.22-.39.83-.71,1.38-.71l21.6-.05c.55,0,1.13.31,1.31.71v.02h.01Z"/>
        <path class="cls-21" d="M122.66,118.29c-.18-.39-.76-.71-1.31-.71h-3.31l-14.97.04h-3.32c-.55,0-1.15.32-1.37.72v.02l-.98,1.96-1.59,3.22-.96,1.96v.03h-.01v.03h-.01v.03h-.01v.04h0v.04h0v.11h0v.05h.01v.03h.02v.03l.02.02h.01v.03h.02v.03h.02v.02s.03.02.03.02h.01l.02.02h.02l.02.02h.02l.02.02h.02l.02.02h.02l.02.02h.02l.02.02h.02l.02.02h.02l.02.02h.05s.02.01.02.01h.03s.03.01.03.01h.03s.03.01.03.01h.03s.03.01.03.01h4.77l19.93-.04h4.86s.03-.01.03-.01h.03s.02-.01.02-.01h.03s.02-.01.02-.01l.03-.02h.02l.02-.02h.02l.02-.02h.02l.02-.02h.02l.02-.02h.02l.02-.02h.02l.02-.02h.02l.02-.02h.02l.02-.03h.02v-.03h.02v-.03h.02v-.03h.02v-.03h.01v-.05l.02-.02v-.04h.01v-.07h0v-.04h0v-.03h0v-.04h0v-.04h0v-.04h-.01v-.03l-.82-1.96-1.35-3.22-.82-1.96v-.02.02ZM123.6,123.67c-.46.1-.9.24-1.31.42-.87.38-1.49.87-1.82,1.39l-20.43.04c-.29-.52-.87-1.01-1.72-1.38-.48-.22-1.01-.37-1.56-.48l1.6-3.46c.57-.1,1.17-.26,1.76-.48.99-.37,1.8-.87,2.36-1.39l16.08-.03c.52.52,1.29,1.01,2.26,1.38.47.18.95.32,1.43.42,0,0,1.35,3.57,1.35,3.57Z"/>
        <path class="cls-21" d="M113.53,121.73c0,1.17-1.49,2.12-3.33,2.12s-3.33-.95-3.33-2.12,1.49-2.12,3.33-2.12,3.33.95,3.33,2.11"/>
        <path class="cls-21" d="M104.68,121.7c0,.44-.62.81-1.4.82-.78,0-1.41-.34-1.42-.78,0-.44.62-.81,1.4-.82.78,0,1.41.34,1.42.78"/>
        <path class="cls-21" d="M103.27,120.69c-1.03.01-1.87.5-1.86,1.09,0,.59.85,1.06,1.89,1.05,1.04-.02,1.87-.5,1.86-1.09,0-.59-.85-1.06-1.89-1.04M103.3,122.74c-.95,0-1.72-.42-1.73-.96,0-.54.76-.99,1.71-1s1.72.42,1.73.96c0,.54-.76.99-1.71,1Z"/>
        <path class="cls-21" d="M118.02,121.79c-.02.44-.66.77-1.44.74-.77-.03-1.39-.42-1.37-.86s.66-.77,1.44-.74,1.39.42,1.37.86"/>
        <path class="cls-21" d="M116.67,120.7c-1.03-.04-1.89.4-1.92.99s.79,1.1,1.83,1.15c1.04.04,1.89-.4,1.92-.99.02-.59-.79-1.1-1.83-1.15M116.58,122.74c-.95-.04-1.7-.51-1.68-1.05s.81-.95,1.76-.9c.95.04,1.7.51,1.67,1.05-.02.54-.81.94-1.76.9h.01Z"/>
        <path class="cls-20" d="M82.17,124.22v1.33c0,.28-2,.52-4.7.58-.48.01-.97.02-1.49.02-3.41,0-6.18-.27-6.18-.6v-1.33s12.37,0,12.37,0Z"/>
        <path class="cls-19" d="M69.8,124.22v1.33c0,.33,2.77.6,6.18.6s6.18-.27,6.18-.6v-1.33h-12.37.01Z"/>
        <path class="cls-5" d="M82.17,124.29c0,.33-2.77.6-6.18.6s-6.18-.27-6.18-.6,2.77-.6,6.18-.6,6.18.27,6.18.6"/>
        <path class="cls-5" d="M82.17,124.22c0,.33-2.77.6-6.18.6s-6.18-.27-6.18-.6,2.77-.6,6.18-.6,6.18.27,6.18.6"/>
        <path class="cls-16" d="M81.72,124.2l-.23-.03M81.49,124.18l-5.51.62,5.51-.62ZM75.99,124.8c-.81,0-1.58-.01-2.27-.04,0-.07-.01-.14-.02-.21.54.02,1.11.02,1.7.02,1.76,0,3.34-.07,4.47-.19.57-.05,1.03-.1,1.31-.16.04,0,.08-.02.11-.03-.03,0-.06-.01-.09-.02h.02c.2-.05.32-.11.35-.17h.01s.08.04.11.1c.02.02.03.06.03.1s-.01.07-.03.1c-.02.02-.03.04-.05.06-.04.03-.08.05-.12.06-.09.04-.2.07-.35.09-.29.06-.7.1-1.21.15-1.02.08-2.42.13-3.96.13h-.01Z"/>
        <path class="cls-20" d="M81.58,122.65v1.33c0,.28-2,.52-4.7.58-.48.01-.97.02-1.49.02-3.41,0-6.18-.27-6.18-.6v-1.33s12.37,0,12.37,0Z"/>
        <path class="cls-19" d="M69.21,122.65v1.33c0,.33,2.77.6,6.18.6s6.18-.27,6.18-.6v-1.33h-12.37.01Z"/>
        <path class="cls-18" d="M75.39,123.32c-.69,0-1.35-.01-1.97-.03,0-.02-.02-.05-.02-.07.63.02,1.3.03,2,.03,2.44,0,4.54-.14,5.55-.34.13,0,.25-.01.37-.02-.78.25-3.13.43-5.92.43"/>
        <path class="cls-20" d="M81.58,122.65c0,.33-2.77.6-6.18.6s-6.18-.27-6.18-.6,2.77-.6,6.18-.6,6.18.27,6.18.6"/>
        <path class="cls-5" d="M80.98,122.63c0,.25-2.5.46-5.59.46s-5.59-.2-5.59-.45,2.5-.46,5.59-.46,5.59.2,5.59.46"/>
        <path class="cls-20" d="M84.38,121.04v1.33c0,.28-2,.52-4.7.59-.48,0-.97.02-1.49.02-3.42,0-6.18-.27-6.18-.6v-1.33h12.37,0Z"/>
        <path class="cls-19" d="M72.01,121.04v1.33c0,.33,2.77.6,6.18.6s6.18-.27,6.18-.6v-1.33h-12.37.01Z"/>
        <path class="cls-18" d="M78.2,121.72c-2.02,0-3.82-.09-4.94-.24.26,0,.53,0,.8.02,1.1.1,2.55.15,4.15.15,3.29,0,5.99-.25,6.17-.57v.04c0,.33-2.77.6-6.18.6"/>
        <path class="cls-5" d="M84.38,121.04c0,.33-2.77.6-6.18.6s-6.18-.27-6.18-.6,2.77-.6,6.18-.6,6.18.27,6.18.6"/>
        <path class="cls-6" d="M83.48,120.73c-.6-.1-1.46-.17-2.5-.22v-.02c.18,0,.34.02.5.03.9.05,1.59.12,1.99.22"/>
        <path class="cls-16" d="M83.93,121.03l-.23-.03M83.7,121l-5.5.62,5.5-.62ZM78.2,121.63c-1.23,0-2.36-.03-3.29-.09-.23-.01-.44-.03-.64-.04h.53c1.62,0,3.1-.06,4.2-.16.88,0,1.69-.04,2.39-.08.9-.05,1.61-.13,2-.21.04,0,.08-.02.11-.02-.05-.01-.1-.03-.17-.04-.27-.05-.68-.1-1.18-.14-.34-.03-.73-.05-1.16-.07v-.27c1.03.05,1.9.13,2.5.22h.04c.11.03.2.06.27.09.04.02.08.04.11.09.02.03.03.06.03.1s-.01.07-.03.1-.04.04-.05.06c-.04.03-.08.05-.12.07-.09.03-.21.06-.35.09-.29.06-.7.1-1.21.14-1.02.08-2.42.14-3.96.14l-.02.02Z"/>
        <path class="cls-20" d="M80.98,119.57v1.32c0,.28-2,.52-4.7.58-.48.01-.97.02-1.49.02-3.42,0-6.18-.27-6.18-.6v-1.33h12.37,0Z"/>
        <path class="cls-19" d="M68.62,119.57v1.32c0,.33,2.77.6,6.18.6s6.18-.27,6.18-.6v-1.33h-12.37.01Z"/>
        <path class="cls-18" d="M74.8,120.24c-1.36,0-2.62-.04-3.65-.12-.04-.02-.07-.05-.11-.08,1.04.08,2.34.12,3.75.12,3.29,0,5.99-.25,6.17-.57,0,.01.01.03.01.04,0,.33-2.77.6-6.18.6"/>
        <path class="cls-5" d="M80.98,119.57c0,.33-2.77.6-6.18.6s-6.18-.27-6.18-.6,2.77-.6,6.18-.6,6.18.27,6.18.6"/>
        <path class="cls-25" d="M69.56,119.25h0s.04,0,.07-.01c.06-.01.12-.02.18-.03h0c-.08.03-.16.04-.24.05"/>
        <path class="cls-16" d="M70.04,119.45c-.16-.07-.32-.14-.48-.2.08-.01.16-.02.24-.04v.02c0,.07.13.14.36.2-.04,0-.08,0-.12.01M74.8,120.15c-1.23,0-2.36-.03-3.29-.09-.17-.01-.33-.02-.48-.03-.17-.12-.34-.23-.51-.33.11.01.23.02.35.03,1.01.08,2.4.13,3.94.13.72,0,1.4-.01,2.03-.03,1.44-.02,2.73-.09,3.67-.19h0s-.04.05-.05.06c-.04.03-.08.05-.12.07-.09.03-.2.06-.35.09-.29.06-.7.1-1.21.14-1.02.08-2.42.14-3.97.14h0Z"/>
        <path class="cls-20" d="M82.17,117.91v1.33c0,.28-2,.52-4.7.58-.48.01-.97.02-1.49.02-3.41,0-6.18-.27-6.18-.6v-1.33s12.37,0,12.37,0Z"/>
        <path class="cls-19" d="M69.8,117.91v1.33c0,.33,2.77.6,6.18.6s6.18-.27,6.18-.6v-1.33h-12.37.01Z"/>
        <path class="cls-5" d="M82.17,117.98c0,.33-2.77.6-6.18.6s-6.18-.27-6.18-.6,2.77-.6,6.18-.6,6.18.27,6.18.6"/>
        <path class="cls-25" d="M82.17,118.12v-.22h-.04c-.16-.14-.8-.26-1.74-.35v-.21c.21.02.4.04.58.07.38.05.68.1.9.17.13.04.22.07.3.12.04.03.08.06.11.11.01.03.02.06.02.1s-.01.07-.02.1c-.01.03-.03.05-.05.07-.02.02-.04.04-.07.05"/>
        <path class="cls-8" d="M82.17,117.98s-.01-.05-.04-.07h.04v.07ZM75.99,118.65c-2.04,0-3.85-.09-4.99-.24-.38-.05-.68-.1-.9-.17-.1-.03-.18-.06-.25-.09.09,0,.19.02.29.03.83.24,3.14.41,5.85.41,3.42,0,6.18-.27,6.18-.6v.14s-.04.02-.06.03c-.1.05-.23.09-.39.12-.32.07-.78.14-1.34.19-1.12.11-2.67.18-4.39.18h0Z"/>
        <path class="cls-16" d="M82.04,117.87l-6.05.71M75.99,118.58c-2.71,0-5.02-.17-5.85-.4.93.08,2.11.13,3.41.14.75.03,1.57.05,2.44.05h0c2.1,0,3.95-.1,5.05-.26.37-.05.65-.11.83-.17.04,0,.07-.02.1-.04-.07-.03-.18-.06-.32-.1-.12-.03-.25-.05-.4-.08-.2-.05-.49-.09-.86-.13v-.05c.94.09,1.58.22,1.74.35h0s.04.05.04.07c0,.33-2.77.6-6.18.6h0v.02Z"/>
        <path class="cls-5" d="M81.58,117.89c0,.25-2.5.46-5.59.46s-5.59-.2-5.59-.46,2.5-.46,5.59-.46,5.59.2,5.59.46"/>
        <path class="cls-20" d="M80.39,116.39v1.33c0,.28-2,.52-4.7.59-.48,0-.97.02-1.49.02-3.42,0-6.18-.27-6.18-.6v-1.33h12.37,0Z"/>
        <path class="cls-19" d="M68.02,116.39v1.33c0,.33,2.77.6,6.18.6s6.18-.27,6.18-.6v-1.33h-12.37.01Z"/>
        <path class="cls-18" d="M74.21,117.07c-3.42,0-6.18-.27-6.18-.6,0-.01,0-.02.01-.04.19.32,2.88.57,6.17.57s5.99-.25,6.17-.57v.04c0,.33-2.77.6-6.18.6"/>
        <path class="cls-5" d="M80.39,116.39c0,.33-2.77.6-6.18.6s-6.18-.27-6.18-.6,2.77-.6,6.18-.6,6.18.27,6.18.6"/>
        <path class="cls-1" d="M79.49,116.08c-1.09-.17-3.05-.29-5.29-.29-.87,0-1.69.02-2.44.05v-.02c.73-.03,1.56-.05,2.44-.05,1.23,0,2.37.03,3.29.09.9.05,1.59.12,2,.22"/>
        <path class="cls-25" d="M68.92,116.08s.07-.02.11-.02c.29-.06.7-.11,1.21-.15.44-.04.95-.06,1.51-.09,0,0,0,.01.01.02-1.19.05-2.18.13-2.85.24"/>
        <path class="cls-16" d="M79.94,116.37h-11.03M68.91,116.37c.05.02.11.03.17.04.27.05.68.1,1.18.14,1.01.08,2.4.13,3.94.13,1.19,0,2.29-.03,3.19-.08s1.61-.12,2-.21c.04,0,.08-.02.11-.02-.05-.02-.11-.03-.17-.04-.27-.05-.68-.1-1.18-.14-1.01-.08-2.4-.13-3.94-.13-1.19,0-2.28.03-3.19.08-.9.05-1.61.12-2,.21-.04,0-.08.02-.11.03h0ZM74.21,116.97c-1.23,0-2.36-.03-3.29-.09s-1.64-.13-2.03-.22c-.12-.03-.2-.05-.27-.09-.04-.02-.07-.04-.11-.09-.02-.03-.03-.06-.03-.1s.01-.07.03-.1.03-.05.05-.06c.04-.03.08-.05.12-.07.06-.02.14-.05.24-.07.66-.11,1.66-.19,2.85-.24.75-.03,1.57-.05,2.44-.05,2.24,0,4.2.12,5.29.29h.04c.11.03.2.05.27.09.04.02.07.04.11.1.02.02.03.06.03.1h0s-.01.07-.03.1-.03.04-.05.06c-.04.03-.08.05-.12.07-.09.03-.2.06-.35.09-.29.06-.7.1-1.21.14-1.02.08-2.42.14-3.96.14h-.02Z"/>
        <path class="cls-4" d="M67.28,131.73c-3.56,0-6.45-2.89-6.45-6.45,0-2.47,1.39-4.62,3.43-5.7.22.08.44.14.68.17h3.66v1.14c0,.24,1.38.44,3.4.54v.71c-1.69.11-2.8.29-2.8.5v1.33s.02.05.05.08c.08.06.27.13.54.18v1.32c0,.25,1.6.47,3.88.56-.4,3.17-3.11,5.62-6.4,5.62"/>
        <path class="cls-15" d="M64.95,119.75c-.24-.02-.47-.08-.68-.16h0s.02,0,.03.01c.02,0,.04.02.06.02s.04.01.06.02c.02,0,.04.01.06.02.02,0,.04.01.06.02.02,0,.04.01.05.02.02,0,.04,0,.07.02.02,0,.04,0,.05.01.02,0,.04,0,.07.01h.17M65.08,119.76h-.12.12Z"/>
        <path class="cls-22" d="M68.62,119.76h-3.83s-.04,0-.07-.01c-.02,0-.04,0-.05-.01-.02,0-.04,0-.07-.02-.02,0-.04,0-.05-.02-.02,0-.04-.01-.06-.02-.02,0-.04-.01-.06-.02-.02,0-.04-.01-.06-.02-.02,0-.04-.02-.06-.02-.01,0-.02,0-.03-.01.9-.48,1.93-.74,3.02-.74.8,0,1.57.15,2.27.41h-.04c-.57.09-.9.2-.9.31v.19-.02Z"/>
        <path class="cls-10" d="M73.68,126.11c-2.27-.09-3.88-.3-3.88-.56v-1.32h0s0,.02.01.03c0,.01-.01.02-.01.03,0,.26,1.62.47,3.92.56,0,.14.02.28.02.43,0,.28-.02.55-.05.82"/>
        <path class="cls-27" d="M73.72,124.85c-2.29-.09-3.92-.31-3.92-.56,0-.01,0-.02.01-.03.14.24,1.71.44,3.9.52v.07"/>
        <path class="cls-27" d="M73.71,124.78c-2.18-.08-3.76-.29-3.9-.52,0,0,0-.02-.01-.03.02,0,.04,0,.06.01.13.03.27.05.43.07.03.04.06.06.1.08.07.04.16.07.27.09.4.09,1.1.17,2.03.22.32.02.66.04,1.02.05v.02"/>
        <path class="cls-24" d="M73.71,124.76c-.36-.01-.7-.03-1.02-.05-.92-.06-1.64-.13-2.03-.22-.11-.03-.2-.05-.27-.09-.04-.02-.07-.04-.1-.08.8.11,2,.2,3.4.24,0,.07.01.14.02.21"/>
        <path class="cls-23" d="M69.86,124.24s-.04,0-.06-.01h0c-.28-.06-.46-.12-.54-.18.09.07.3.14.61.19"/>
        <path class="cls-10" d="M73.69,124.55c-1.4-.04-2.6-.12-3.4-.24-.16-.02-.3-.05-.43-.07-.31-.06-.52-.12-.61-.19-.03-.02-.05-.05-.05-.08v-1.33s0,.02.01.03c0,.01-.01.02-.01.04,0,.27,1.76.49,4.21.57.13.41.22.83.27,1.27"/>
        <path class="cls-11" d="M73.42,123.29c-2.45-.08-4.21-.3-4.21-.57,0-.01,0-.02.01-.04.15.25,1.85.46,4.17.54,0,.02.02.05.02.07"/>
        <path class="cls-23" d="M73.4,123.22c-2.33-.08-4.03-.29-4.17-.54,0-.01-.01-.02-.01-.03,0-.21,1.12-.4,2.8-.5v.12c-1.34.08-2.21.21-2.21.36,0,.19,1.46.36,3.53.42.02.06.04.11.06.16"/>
        <path class="cls-27" d="M73.34,123.05c-2.07-.07-3.53-.23-3.53-.42,0-.15.87-.28,2.21-.36v.1c0,.14.44.26,1.19.36.05.11.09.22.13.32"/>
        <path class="cls-23" d="M73.21,122.73c-.75-.1-1.19-.22-1.19-.35v-.94.94c0,.14.44.26,1.19.36"/>
        <path class="cls-10" d="M73.21,122.73c-.75-.1-1.19-.22-1.19-.35v-.94c.15,0,.3.02.46.02.29.4.54.82.74,1.28"/>
        <path class="cls-10" d="M72.47,121.45c-.16,0-.31-.01-.46-.02-2.02-.1-3.4-.3-3.4-.54v-1.33s0,.02.01.03c0,.01-.01.03-.01.04,0,.2,1,.38,2.54.49.5.38.95.82,1.32,1.33"/>
        <path class="cls-11" d="M71.15,120.12c-1.54-.11-2.54-.28-2.54-.49,0,0,0-.02.01-.04.11.18,1.03.34,2.42.44.04.03.07.05.11.08"/>
        <path class="cls-27" d="M70.51,119.7c-.34-.04-.63-.07-.84-.11-.06-.01-.12-.03-.17-.04.03,0,.07-.02.11-.03.12-.03.26-.05.43-.07.16.08.32.16.47.25M71.05,120.05c-1.39-.1-2.31-.26-2.42-.44,0-.01-.01-.02-.01-.03,0-.12.33-.22.9-.31-.1.02-.18.05-.24.07-.04.02-.08.04-.12.07-.02.01-.04.03-.05.06-.02.03-.03.06-.03.1s.01.07.03.1c.03.05.07.07.11.09.07.04.16.07.27.09.32.08.86.14,1.55.19,0,0,.02.01.02.02h0Z"/>
        <path class="cls-24" d="M71.02,120.03c-.69-.05-1.22-.12-1.55-.19-.11-.03-.2-.06-.27-.09-.04-.02-.08-.04-.11-.09-.02-.03-.03-.06-.03-.1s.01-.07.03-.1.03-.04.05-.06c.04-.03.08-.05.12-.07.07-.03.15-.05.24-.07h.05c.16.06.33.13.48.2-.17.02-.32.05-.43.07-.04,0-.08.02-.11.03.05.01.11.02.17.04.21.04.49.08.84.11.18.1.35.21.51.33"/>
        <path class="cls-19" d="M73.52,125.28c0,3.56-2.89,6.45-6.45,6.45s-6.45-2.89-6.45-6.45,2.89-6.45,6.45-6.45,6.45,2.89,6.45,6.45"/>
        <path class="cls-5" d="M72.92,125.46c0,3.56-2.89,6.45-6.45,6.45s-6.45-2.89-6.45-6.45,2.89-6.45,6.45-6.45,6.45,2.89,6.45,6.45"/>
        <path class="cls-14" d="M66.47,119.34c-3.38,0-6.11,2.74-6.11,6.11s2.74,6.11,6.11,6.11,6.11-2.74,6.11-6.11-2.74-6.11-6.11-6.11M66.47,131.35c-3.25,0-5.89-2.64-5.89-5.89s2.64-5.89,5.89-5.89,5.89,2.64,5.89,5.89-2.64,5.89-5.89,5.89Z"/>
        <path class="cls-19" d="M70.87,125.46c0,2.43-1.97,4.4-4.4,4.4s-4.4-1.97-4.4-4.4,1.97-4.4,4.4-4.4,4.4,1.97,4.4,4.4"/>
        <path class="cls-14" d="M70.78,125.46c0,2.28-1.85,4.14-4.14,4.14s-4.14-1.86-4.14-4.14,1.85-4.14,4.14-4.14,4.14,1.85,4.14,4.14"/>
        <path class="cls-19" d="M66.13,127.62c-.48-.04-.95-.17-1.39-.39l.05-1.1c.25.14.52.26.82.37.3.1.56.16.79.17.19,0,.33,0,.42-.05.09-.04.14-.11.14-.22,0-.07-.03-.13-.09-.19-.06-.05-.16-.12-.31-.19-.14-.07-.34-.16-.59-.26-.28-.12-.5-.24-.66-.38-.17-.14-.29-.29-.36-.45-.07-.16-.1-.37-.09-.6.02-.37.15-.65.39-.84.24-.2.6-.31,1.07-.33l.03-.74.69.03-.03.73c.44.04.88.17,1.32.38l-.44.93c-.45-.23-.87-.35-1.24-.37-.18,0-.3,0-.38.05-.07.04-.11.1-.12.19,0,.07.02.14.07.18.05.05.14.11.26.17.13.06.3.14.53.23.46.18.78.39.97.6.19.22.28.49.26.82-.02.37-.15.67-.39.89-.25.22-.6.35-1.05.39l-.04.89-.69-.03.04-.87h.02Z"/>
      </g>
    </g>
  </g>
</svg>