<?xml version="1.0" encoding="UTF-8"?>
<svg id="Layer_2" data-name="Layer 2" xmlns="http://www.w3.org/2000/svg" viewBox="0 0 184.34 184.34">
  <defs>
    <style>
      .cls-1 {
        fill: #cc6e3d;
      }

      .cls-1, .cls-2, .cls-3, .cls-4, .cls-5, .cls-6 {
        fill-rule: evenodd;
      }

      .cls-2 {
        fill: #ebba3f;
      }

      .cls-3 {
        fill: #de959e;
      }

      .cls-7 {
        fill: #fff;
      }

      .cls-8 {
        fill: none;
        stroke: #fff;
        stroke-miterlimit: 10;
        stroke-width: 1px;
      }

      .cls-9, .cls-5 {
        fill: #c33457;
      }

      .cls-10 {
        fill: #d8dfef;
      }

      .cls-11 {
        fill: #022066;
      }

      .cls-4 {
        fill: #f2dd9f;
      }

      .cls-6 {
        fill: #d67380;
      }

      .cls-12 {
        fill: #0f6aab;
      }
    </style>
  </defs>
  <g id="Layer_2-2" data-name="Layer 2">
    <g id="OBJECTS">
      <g>
        <circle class="cls-11" cx="92.17" cy="92.17" r="92.17"/>
        <circle class="cls-12" cx="92.17" cy="92.17" r="85.92"/>
        <circle class="cls-7" cx="92.17" cy="92.17" r="76.12"/>
        <circle class="cls-8" cx="92.17" cy="92.17" r="82.21"/>
        <path class="cls-10" d="M92.17,16.04h-.19v152.24h.19c42.04,0,76.12-34.08,76.12-76.12S134.21,16.04,92.17,16.04Z"/>
        <g>
          <path class="cls-11" d="M73.03,38.16c1.01,2.28-.08,4.46-2.82,5.66l-2.06.91,1.25,2.82-2.37,1.04-4.52-10.24,4.43-1.96c2.74-1.21,5.07-.54,6.09,1.75v.02ZM70.63,39.22c-.5-1.13-1.52-1.46-2.97-.82l-1.93.85,1.57,3.56,1.93-.85c1.45-.64,1.89-1.62,1.4-2.73h0Z"/>
          <path class="cls-11" d="M74.86,33.48l2.53-.55,1.93,8.88,5.49-1.19.45,2.06-8.02,1.75s-2.38-10.95-2.38-10.95Z"/>
          <path class="cls-11" d="M93.53,40.1l-5.2.08-.95,2.41-2.65.04,4.81-11.27,2.56-.04,5.19,11.11-2.72.04-1.03-2.38h-.01ZM92.69,38.15l-1.84-4.26-1.71,4.31,3.55-.06h0Z"/>
          <path class="cls-11" d="M110.43,34.14l-2.56,10.91-2.07-.49-3.88-7.9-1.56,6.62-2.49-.59,2.56-10.91,2.09.49,3.87,7.9,1.56-6.62,2.49.59h-.01Z"/>
          <path class="cls-11" d="M111.74,40.42c1.55-2.95,4.99-3.93,8.12-2.29,3.12,1.63,4.29,5.01,2.74,7.98-1.55,2.96-5,3.92-8.12,2.29-3.13-1.64-4.29-5.03-2.74-7.98ZM120.27,44.9c.99-1.88.33-3.87-1.44-4.8s-3.78-.34-4.77,1.55-.33,3.87,1.44,4.8,3.78.34,4.77-1.55Z"/>
        </g>
        <g>
          <path class="cls-11" d="M68.04,145.03c1.19-2.93,4.3-4.12,7.33-2.89,1.68.68,2.84,1.87,3.3,3.35l-1.99.75c-.35-1.02-1.01-1.74-1.98-2.13-1.82-.74-3.63,0-4.38,1.85-.75,1.83.03,3.64,1.85,4.38.97.4,1.95.34,2.92-.16l.9,1.92c-1.38.75-3.03.79-4.72.11-3.02-1.22-4.42-4.24-3.22-7.17h-.01Z"/>
          <path class="cls-11" d="M80.05,144.14l4.71.73c3.39.52,5.4,2.93,4.92,6.07-.49,3.14-3.13,4.83-6.52,4.3l-4.71-.73,1.6-10.37h0ZM83.34,153.25c2.06.32,3.6-.7,3.9-2.69s-.85-3.42-2.91-3.74l-2.19-.34-.99,6.43,2.19.34h0Z"/>
          <path class="cls-11" d="M91.4,150.82l4.24-.11.05,1.87-4.25.11-.05-1.88h.01Z"/>
          <path class="cls-11" d="M97.3,150.65c-.63-3.41.89-5.69,3.43-6.16,2.55-.48,4.78,1.11,5.42,4.51s-.88,5.68-3.43,6.16c-2.54.47-4.78-1.11-5.42-4.51ZM103.74,149.44c-.44-2.34-1.44-3.16-2.64-2.94-1.18.22-1.82,1.35-1.39,3.69.44,2.34,1.44,3.16,2.62,2.94,1.19-.22,1.84-1.35,1.4-3.69h0Z"/>
          <path class="cls-11" d="M115.95,148.76l.72,1.84-7.39,2.88-.57-1.47,2.38-5.04c.55-1.16.5-1.73.32-2.2-.3-.77-1.01-1.01-2.04-.61-.84.33-1.43.93-1.65,1.77l-2.06-.42c.32-1.4,1.42-2.65,3.18-3.33,2.18-.85,4.07-.3,4.76,1.48.37.95.44,1.92-.43,3.73l-1.42,3,4.21-1.64h-.01Z"/>
        </g>
        <g>
          <path class="cls-6" d="M63.89,104.4c-6.23,0-11.3-5.07-11.3-11.3v-5.28h4.75v5.28c0,3.62,2.94,6.55,6.55,6.55v4.75Z"/>
          <path class="cls-6" d="M123.77,94.07c-1.86-5.07-5.45-9.3-10.05-11.98v-9.61c-4.18,0-7.69,2.82-8.75,6.66-.93-.11-1.89-.17-2.85-.17h-17.53c-12.74,0-23.07,10.33-23.07,23.07,0,11,7.7,20.2,18.01,22.51v8.71h9.22v-8.15h9.21v8.15h9.22v-8.71c7.69-1.72,13.93-7.27,16.6-14.55h6.36v-15.91h-6.36v-.02Z"/>
          <path class="cls-3" d="M95.83,78.95h-11.24c-12.74,0-23.07,10.33-23.07,23.07,0,11,7.7,20.2,18.01,22.51v8.71h9.22v-8.15h7.08v-46.13h0Z"/>
          <rect class="cls-9" x="83.27" y="86.29" width="20.17" height="4.75"/>
          <path class="cls-5" d="M113.55,90.95c-1.74,0-3.16,1.42-3.16,3.16s1.42,3.16,3.16,3.16,3.16-1.42,3.16-3.16-1.42-3.16-3.16-3.16"/>
          <path class="cls-1" d="M93.3,55.69c7.18,0,12.99,5.82,12.99,12.99s-5.82,12.99-12.99,12.99-12.99-5.82-12.99-12.99,5.82-12.99,12.99-12.99"/>
          <path class="cls-2" d="M93.3,60.23c4.67,0,8.46,3.79,8.46,8.46s-3.78,8.45-8.46,8.45-8.46-3.78-8.46-8.45,3.79-8.46,8.46-8.46"/>
          <path class="cls-2" d="M93.3,55.69c-7.18,0-12.99,5.82-12.99,12.99s5.82,12.99,12.99,12.99v-25.98Z"/>
          <path class="cls-4" d="M93.3,60.23c-4.67,0-8.46,3.78-8.46,8.46s3.79,8.45,8.46,8.45v-16.91Z"/>
        </g>
      </g>
    </g>
  </g>
</svg>