<?xml version="1.0" encoding="UTF-8"?>
<svg id="Layer_2" data-name="Layer 2" xmlns="http://www.w3.org/2000/svg" viewBox="0 0 184.34 184.34">
  <defs>
    <style>
      .cls-1 {
        fill: #589155;
      }

      .cls-1, .cls-2, .cls-3, .cls-4, .cls-5 {
        fill-rule: evenodd;
      }

      .cls-2 {
        fill: #de903d;
      }

      .cls-3 {
        fill: #ebba3f;
      }

      .cls-6 {
        fill: #fff;
      }

      .cls-7 {
        fill: none;
        stroke: #fff;
        stroke-miterlimit: 10;
        stroke-width: 1px;
      }

      .cls-8 {
        fill: #d8dfef;
      }

      .cls-9 {
        fill: #022066;
      }

      .cls-4 {
        fill: #85be84;
      }

      .cls-5 {
        fill: #f2dd9f;
      }

      .cls-10 {
        fill: #864638;
      }

      .cls-11 {
        fill: #0f6aab;
      }
    </style>
  </defs>
  <g id="Layer_2-2" data-name="Layer 2">
    <g id="OBJECTS">
      <g>
        <circle class="cls-9" cx="92.17" cy="92.17" r="92.17"/>
        <circle class="cls-11" cx="92.17" cy="92.17" r="85.92"/>
        <circle class="cls-6" cx="92.17" cy="92.17" r="76.12"/>
        <circle class="cls-7" cx="92.17" cy="92.17" r="82.21"/>
        <path class="cls-8" d="M92.17,16.04h-.19v152.24h.19c42.04,0,76.12-34.08,76.12-76.12S134.21,16.04,92.17,16.04Z"/>
        <g>
          <path class="cls-9" d="M73.03,38.16c1.01,2.28-.08,4.46-2.82,5.66l-2.06.91,1.25,2.82-2.37,1.04-4.52-10.24,4.43-1.96c2.74-1.21,5.08-.54,6.09,1.75v.02ZM70.63,39.22c-.5-1.13-1.52-1.46-2.97-.82l-1.93.85,1.57,3.56,1.93-.85c1.45-.64,1.89-1.62,1.4-2.73h0Z"/>
          <path class="cls-9" d="M74.86,33.48l2.53-.55,1.93,8.88,5.49-1.19.45,2.06-8.02,1.75s-2.38-10.95-2.38-10.95Z"/>
          <path class="cls-9" d="M93.53,40.1l-5.2.08-.95,2.41-2.66.04,4.81-11.27,2.56-.04,5.19,11.11-2.72.04-1.03-2.38h0ZM92.69,38.15l-1.84-4.26-1.71,4.31,3.55-.06h0Z"/>
          <path class="cls-9" d="M110.43,34.14l-2.56,10.91-2.07-.49-3.88-7.9-1.56,6.62-2.49-.59,2.56-10.91,2.09.49,3.87,7.9,1.56-6.62,2.49.59h-.01Z"/>
          <path class="cls-9" d="M111.74,40.42c1.55-2.95,4.99-3.93,8.12-2.29,3.12,1.63,4.29,5.01,2.74,7.98s-5,3.92-8.12,2.29c-3.13-1.64-4.29-5.03-2.74-7.98ZM120.27,44.9c.99-1.88.33-3.87-1.44-4.8-1.77-.93-3.78-.34-4.77,1.55s-.33,3.87,1.44,4.8c1.77.93,3.78.34,4.77-1.55Z"/>
        </g>
        <g>
          <path class="cls-9" d="M67.97,145c1.2-2.93,4.3-4.11,7.33-2.87,1.68.69,2.83,1.87,3.29,3.36l-1.99.74c-.35-1.02-1.01-1.74-1.98-2.14-1.82-.74-3.63,0-4.38,1.84-.75,1.83.02,3.64,1.84,4.38.97.4,1.95.34,2.91-.15l.9,1.92c-1.38.75-3.03.79-4.72.09-3.01-1.23-4.41-4.25-3.21-7.18h0Z"/>
          <path class="cls-9" d="M79.98,144.12l4.71.74c3.39.53,5.4,2.94,4.91,6.08s-3.14,4.82-6.53,4.29l-4.71-.74s1.62-10.37,1.62-10.37ZM83.26,153.24c2.06.32,3.6-.7,3.91-2.68s-.84-3.43-2.9-3.75l-2.19-.34-1.01,6.43,2.19.34Z"/>
          <path class="cls-9" d="M91.32,150.82l4.25-.1.04,1.88-4.24.1-.04-1.88h-.01Z"/>
          <path class="cls-9" d="M97.2,150.65c-.63-3.41.91-5.69,3.44-6.16,2.55-.47,4.78,1.12,5.41,4.53.63,3.41-.89,5.69-3.44,6.16-2.54.47-4.78-1.12-5.41-4.53ZM103.65,149.47c-.43-2.35-1.44-3.17-2.63-2.95-1.18.22-1.83,1.34-1.4,3.69s1.44,3.17,2.62,2.95c1.2-.22,1.84-1.35,1.41-3.69Z"/>
          <path class="cls-9" d="M115.58,147.49c.68,1.73,0,3.74-2.8,4.83-1.36.53-2.93.71-4.14.41l.22-2.08c.96.27,2.11.19,3.13-.21,1.13-.44,1.65-1.19,1.33-1.99-.3-.77-1-1.08-2.78-.38l-2.5.98-1.65-5.7,5.97-2.33.71,1.82-4.08,1.6.57,1.92.8-.31c2.89-1.13,4.55-.28,5.22,1.45h0Z"/>
        </g>
        <g>
          <path class="cls-2" d="M92.17,79.7c-14.28,0-25.86,4.7-25.86,10.49v32.69c0,5.79,11.58,10.49,25.86,10.49s25.86-4.7,25.86-10.49v-32.69c0-5.8-11.58-10.49-25.86-10.49"/>
          <path class="cls-3" d="M92.17,79.7c-14.28,0-25.86,4.7-25.86,10.49v32.69c0,5.79,11.58,10.49,25.86,10.49v-53.67Z"/>
          <path class="cls-3" d="M92.17,79.7c14.28,0,25.86,4.7,25.86,10.49s-11.58,10.49-25.86,10.49-25.86-4.7-25.86-10.49,11.58-10.49,25.86-10.49"/>
          <path class="cls-3" d="M92.17,111.58c-14.28,0-25.86-4.7-25.86-10.49v10.9c0,5.8,11.58,10.49,25.86,10.49s25.86-4.7,25.86-10.49v-10.9c0,5.8-11.58,10.49-25.86,10.49"/>
          <path class="cls-5" d="M92.17,111.58c-14.28,0-25.86-4.7-25.86-10.49v10.9c0,5.8,11.58,10.49,25.86,10.49v-10.9Z"/>
          <path class="cls-5" d="M92.17,79.7c-14.28,0-25.86,4.7-25.86,10.49s11.58,10.49,25.86,10.49v-20.98Z"/>
          <path class="cls-1" d="M101.11,56.89h8.95v7.23c0,3.99-4.01,7.23-8.95,7.23h-8.95v-7.23c0-3.99,4-7.23,8.95-7.23"/>
          <path class="cls-4" d="M101.11,56.89c-4.94,0-8.95,3.23-8.95,7.23v7.23h8.95v-14.45h0Z"/>
          <path class="cls-1" d="M83.22,56.89h-8.95v7.23c0,3.99,4.01,7.23,8.95,7.23h8.95v-7.23c0-3.99-4-7.23-8.95-7.23"/>
          <path class="cls-4" d="M83.22,56.89h-8.95v7.23c0,3.99,4.01,7.23,8.95,7.23v-14.45h0Z"/>
          <rect class="cls-10" x="89.64" y="50.96" width="5.05" height="39.23"/>
        </g>
      </g>
    </g>
  </g>
</svg>