<?xml version="1.0" encoding="UTF-8"?>
<svg id="Layer_2" data-name="Layer 2" xmlns="http://www.w3.org/2000/svg" viewBox="0 0 184.34 184.34">
  <defs>
    <style>
      .cls-1 {
        fill: #e19a4c;
      }

      .cls-1, .cls-2, .cls-3, .cls-4, .cls-5 {
        fill-rule: evenodd;
      }

      .cls-6 {
        fill: #f2dd9f;
      }

      .cls-7 {
        fill: #fff;
      }

      .cls-2 {
        fill: #bc6e3f;
      }

      .cls-8 {
        fill: none;
        stroke: #fff;
        stroke-miterlimit: 10;
        stroke-width: 1px;
      }

      .cls-9 {
        fill: #d8dfef;
      }

      .cls-3 {
        fill: #fdfdfd;
      }

      .cls-4 {
        fill: #9b9b34;
      }

      .cls-10 {
        fill: #022066;
      }

      .cls-11 {
        fill: #ebba3f;
      }

      .cls-5 {
        fill: #c1c845;
      }

      .cls-12 {
        fill: #0f6aab;
      }
    </style>
  </defs>
  <g id="Layer_2-2" data-name="Layer 2">
    <g id="OBJECTS">
      <g>
        <circle class="cls-10" cx="92.17" cy="92.17" r="92.17"/>
        <circle class="cls-12" cx="92.17" cy="92.17" r="85.92"/>
        <circle class="cls-7" cx="92.17" cy="92.17" r="76.12"/>
        <circle class="cls-8" cx="92.17" cy="92.17" r="82.21"/>
        <path class="cls-9" d="M92.17,16.04h-.19v152.24h.19c42.04,0,76.12-34.08,76.12-76.12S134.21,16.04,92.17,16.04Z"/>
        <g>
          <path class="cls-10" d="M73.03,38.16c1.01,2.28-.08,4.46-2.82,5.66l-2.06.91,1.25,2.82-2.37,1.04-4.52-10.24,4.43-1.96c2.74-1.21,5.07-.54,6.09,1.75v.02ZM70.63,39.22c-.5-1.13-1.52-1.46-2.97-.82l-1.93.85,1.57,3.56,1.93-.85c1.45-.64,1.89-1.62,1.4-2.73h0Z"/>
          <path class="cls-10" d="M74.86,33.48l2.53-.55,1.93,8.88,5.49-1.19.45,2.06-8.02,1.75s-2.38-10.95-2.38-10.95Z"/>
          <path class="cls-10" d="M93.53,40.1l-5.2.08-.95,2.41-2.66.04,4.81-11.27,2.56-.04,5.19,11.11-2.72.04-1.03-2.38h0ZM92.69,38.15l-1.84-4.26-1.71,4.31,3.55-.06h0Z"/>
          <path class="cls-10" d="M110.43,34.14l-2.56,10.91-2.07-.49-3.88-7.9-1.56,6.62-2.49-.59,2.56-10.91,2.09.49,3.87,7.9,1.56-6.62,2.49.59h-.01Z"/>
          <path class="cls-10" d="M111.74,40.42c1.55-2.95,4.99-3.93,8.12-2.29,3.12,1.63,4.29,5.01,2.74,7.98s-5,3.92-8.12,2.29c-3.13-1.64-4.29-5.03-2.74-7.98ZM120.27,44.9c.99-1.88.33-3.87-1.44-4.8-1.77-.93-3.78-.34-4.77,1.55s-.33,3.87,1.44,4.8c1.77.93,3.78.34,4.77-1.55Z"/>
        </g>
        <g>
          <path class="cls-10" d="M68.84,145.44c1.14-2.95,4.23-4.19,7.28-3.01,1.69.66,2.87,1.82,3.36,3.29l-1.98.78c-.37-1.01-1.04-1.72-2.02-2.1-1.83-.71-3.63.07-4.35,1.92s.09,3.64,1.92,4.35c.98.38,1.96.31,2.91-.21l.94,1.91c-1.36.78-3.01.84-4.72.18-3.04-1.18-4.48-4.17-3.34-7.12h0Z"/>
          <path class="cls-10" d="M90.82,145.78l-6.05,9.71-2.37-.36-2.92-11.05,2.6.39,2.04,7.89,4.32-6.93,2.39.36h0Z"/>
          <path class="cls-10" d="M90.57,150.82l4.25-.07.03,1.88-4.24.07-.03-1.88h-.01Z"/>
          <path class="cls-10" d="M96.43,150.72c-.57-3.42.99-5.67,3.54-6.1,2.56-.43,4.76,1.19,5.34,4.61.57,3.42-.98,5.67-3.54,6.1-2.54.43-4.76-1.19-5.34-4.61ZM102.89,149.64c-.4-2.35-1.39-3.19-2.59-2.99-1.18.2-1.85,1.31-1.45,3.67.4,2.35,1.39,3.19,2.57,2.99,1.2-.2,1.86-1.32,1.47-3.67Z"/>
          <path class="cls-10" d="M114.54,148.06c.61,1.66-.11,3.65-2.91,4.68-1.38.51-2.94.65-4.15.33l.24-2.07c.95.29,2.11.23,3.14-.15,1.14-.42,1.67-1.14,1.38-1.95-.28-.75-1-1.01-2.29-.53l-1.04.38-.56-1.5,1.18-3.04-4.19,1.55-.67-1.83,6.89-2.54.54,1.48-1.29,3.35c1.88-.37,3.18.39,3.72,1.84h.01Z"/>
        </g>
        <path class="cls-2" d="M105.78,73.39h-5.88v-7.6l3.24-9.78h-17.55v17.38h-5.88c-7.9,0-14.3,6.4-14.3,14.29v29.85c0,7.9,6.4,14.29,14.3,14.29h26.06c7.9,0,14.29-6.4,14.29-14.29v-29.85c0-7.89-6.4-14.29-14.29-14.29"/>
        <path class="cls-1" d="M92.75,65.8h0v-12.12h-10.4l3.24,12.12v7.6h-5.88c-7.9,0-14.3,6.4-14.3,14.29v29.85c0,7.9,6.4,14.29,14.3,14.29h13.03v-66.03h.01Z"/>
        <path class="cls-4" d="M92.75,83.16c10.74,0,19.45,8.71,19.45,19.45s-8.71,19.45-19.45,19.45-19.45-8.71-19.45-19.45,8.71-19.45,19.45-19.45"/>
        <path class="cls-5" d="M92.75,83.16c-10.74,0-19.45,8.71-19.45,19.45s8.71,19.45,19.45,19.45v-38.89h0Z"/>
        <rect class="cls-11" x="81.17" y="65.8" width="23.16" height="7.6"/>
        <rect class="cls-6" x="81.17" y="65.8" width="11.58" height="7.6"/>
        <path class="cls-3" d="M95.14,100.42v-4.53c1.43.51,1.43,1.5,1.43,2h4.79c0-3.68-2.33-6.19-6.22-6.9v-2.77h-4.79v2.77c-3.89.71-6.22,3.22-6.22,6.9s2.33,6.19,6.22,6.9v4.53c-1.43-.51-1.43-1.5-1.43-2h-4.79c0,3.68,2.33,6.19,6.22,6.9v2.77h4.79v-2.77c3.89-.71,6.22-3.22,6.22-6.9s-2.33-6.19-6.22-6.91M88.93,97.89c0-.5,0-1.49,1.43-2v4c-1.43-.51-1.43-1.5-1.43-2ZM95.14,109.33v-4c1.43.51,1.43,1.5,1.43,2s0,1.49-1.43,2Z"/>
      </g>
    </g>
  </g>
</svg>