<?xml version="1.0" encoding="UTF-8"?>
<svg id="Layer_1" xmlns="http://www.w3.org/2000/svg" version="1.1" viewBox="0 0 297.6 161.1">
  <!-- Generator: Adobe Illustrator 30.2.1, SVG Export Plug-In . SVG Version: 2.1.1 Build 1)  -->
  <defs>
    <style>
      .st0 {
        fill: #004282;
      }

      .st0, .st1 {
        fill-rule: evenodd;
      }

      .st2 {
        fill: #183a6e;
      }

      .st1 {
        fill: #00aeef;
      }
    </style>
  </defs>
  <path class="st1" d="M17.9,61.8l-1.2,7.7c17.2,3.5,32.4,12.1,44.2,24.2l17.6-11.5s2-1.4,3-.2c0,0,.9.9-.9,2.8l-14.5,15c10.2,12.7,16.8,28.3,18.3,45.4h8.2l13.1-83.3H17.9Z"/>
  <path class="st0" d="M34.8,121.1l-.8-1,18.9-21.1c-10.2-10-23.1-17.2-37.6-20.2l-7.7,49c-1.3,9.2.3,17.3,15.7,17.3h51.7c-1.4-14.4-7-27.7-15.5-38.6l-24.7,14.6Z"/>
  <path class="st0" d="M155.7,101.2h0c8-4.2,13-12.2,13-21.2s-1.7-9.7-4.9-13c-3.7-3.8-8.2-5.3-16.6-5.3h-27.5l-.3,1.7-10.7,67.8c-.8,5-.1,13.7,10.8,13.7h0s18.9,0,18.9,0c16.1,0,27.3-11.1,27.3-27.1s-3.8-13.8-10-16.7M145.8,130.1h0c-3,2.1-5,2.6-12.2,2.6h-11.3l3.7-23.9h11.9c11.5,0,13,5,13,10s-1.9,9.1-5.1,11.3ZM138.7,95.7h-10.5l3.5-21.6h11.9c6.8,0,8,.6,9.1,2.1.9,1.3,1.3,2.7,1.3,4.8,0,8.8-6.1,14.8-15.2,14.8Z"/>
  <path class="st0" d="M209.3,109.2h0c11.9-2.3,21.2-13.8,21.2-27s-8.3-20.5-23.4-20.5h-26.1l-.3,1.7-11,70.5c-.5,3.6-3.2,11.1,9.9,11.1h1.3s.9,0,.9,0l.3-1.7,5-32.3h7.6l16.1,32.8.6,1.1h15.9l-1.5-2.9-16.6-32.9ZM189.1,98.7l3.9-24.6h11.2c10.3,0,12.2,2.8,12.2,8.2,0,9.8-6.7,16.5-16.8,16.5h-10.5Z"/>
  <path class="st0" d="M277.6,101.2h0c8-4.2,13-12.2,13-21.2s-1.7-9.7-4.9-13c-3.7-3.8-8.2-5.3-16.6-5.3h-27.5l-.3,1.7-10.7,67.7c-.7,4.9-.3,13.8,10.8,13.9h0s18.9,0,18.9,0c16.1,0,27.3-11.1,27.3-27.1s-3.8-13.8-10-16.7M267.8,130.1h0c-3,2.1-5,2.6-12.2,2.6h-11.2l3.7-23.9h11.9c11.5,0,13,5,13,10s-1.9,9.1-5.1,11.3ZM260.6,95.7h-10.5l3.5-21.6h11.9c6.9,0,8,.6,9.1,2.1.9,1.3,1.3,2.7,1.3,4.8,0,8.8-6.1,14.8-15.2,14.8Z"/>
  <path class="st2" d="M280.7,39.7h-8.6l5-9.6c.7-1.4,1.4-3.3,2-4.5h0c0,1.4.2,3.3.3,4.6l1.3,9.6ZM288.2,50.9l-4.3-30.6h-7.5l-15.8,30.6h6l3.3-6.5h11.3l.8,6.5h6.2ZM262.1,20.4h-5.8l-5.8,30.6h5.8l5.8-30.6ZM244.8,44.5c-1.8.7-4.1,1.4-6.4,1.4-4.8,0-6.6-2.6-6.6-6.5,0-6,3-14.2,10.9-14.2s3.8.5,5.5,1.2l1.7-5.3c-1.8-.6-4-1.1-6.7-1.1-12.7,0-17.9,11.2-17.9,20.6s2,10.7,11.4,10.7,5.7-.6,8.1-1.4v-5.3ZM217,50.9l5.8-30.6h-5.6l-1.4,7.4c-1,5-1.8,10.4-2.2,13.8h0c-.5-1.9-1.1-4-2.3-6.7l-6-14.5h-6.3l-5.8,30.6h5.6l1.5-8.3c1-4.9,1.9-11,2.2-14h0c.5,2,1.2,4.1,2.4,6.9l6.5,15.5h5.6ZM187.3,45.8h-11.2l1.6-8.2h10.2l.9-4.8h-10.2l1.4-7.5h11.2l1-4.9h-17l-5.8,30.6h17l1-5.1ZM149.4,25.2c.9,0,2.2-.1,3.8-.1,5.7,0,7.5,2.7,7.5,6.7,0,5.9-3.2,14.3-12.4,14.3s-2,0-2.8-.2l3.9-20.6ZM138.7,50.9c2.5,0,5.1.2,8.6.2,13.1,0,19.6-9.6,19.6-19.9s-4.2-11-12.9-11-7.2.1-9.6.2l-5.8,30.5ZM136.5,20.4h-5.8l-5.8,30.6h5.8l5.8-30.6ZM126.3,20.4h-6.2l-9.3,18.2c-1.1,2.2-2.3,4.8-3.1,6.9h0c0-2.1-.3-4.8-.5-6.8l-2.2-18.3h-6.2l4.3,30.6h7.5l15.8-30.6ZM90.5,45.8h-11.2l1.6-8.2h10.2l.9-4.8h-10.2l1.4-7.5h11.2l1-4.9h-17l-5.8,30.6h17l1-5.1ZM56.4,25.1s1.4-.1,2.6-.1c3.3,0,4.7,1.4,4.7,3.4s-1.7,5.8-6.6,5.8-2.4,0-2.4,0l1.7-9.1ZM67.6,50.9l-4.6-10c-.7-1.6-1.6-3.2-1.6-3.2,6-1.4,8.5-6,8.5-10.5s-3.3-7.1-9.9-7.1-8.5.2-8.5.2l-5.8,30.6h5.8l2.3-12.3h1.6l5.2,12.3h6.9ZM30.8,25.1s1.2,0,2.6,0c3.8,0,5.2,1.8,5.2,4.1,0,3.2-2.1,7.2-7.3,7.2s-2.5-.2-2.5-.2l2.1-11ZM25.9,50.9l1.9-9.9s1.3,0,2.6,0c9.6,0,14.3-6.7,14.3-12.9s-3.3-8-10.4-8-8.3.2-8.3.2l-5.8,30.6h5.8Z"/>
  <polygon class="st2" points="175.8 18.6 182.5 9.9 186.4 9.9 193 18.6 187.9 18.6 184.4 13.3 180.9 18.6 175.8 18.6"/>
</svg>