<?xml version="1.0" encoding="UTF-8"?>
<svg id="Layer_2" data-name="Layer 2" xmlns="http://www.w3.org/2000/svg" viewBox="0 0 184.34 184.34">
  <defs>
    <style>
      .cls-1 {
        fill: #fff;
      }

      .cls-2 {
        fill: none;
        stroke: #fff;
        stroke-miterlimit: 10;
        stroke-width: 1px;
      }

      .cls-3 {
        fill: #d8dfef;
      }

      .cls-4 {
        fill: #022066;
      }

      .cls-5 {
        fill-rule: evenodd;
      }

      .cls-5, .cls-6 {
        fill: #000059;
      }

      .cls-7 {
        fill: #0f6aab;
      }
    </style>
  </defs>
  <g id="Layer_2-2" data-name="Layer 2">
    <g id="OBJECTS">
      <g>
        <circle class="cls-4" cx="92.17" cy="92.17" r="92.17"/>
        <circle class="cls-7" cx="92.17" cy="92.17" r="85.92"/>
        <circle class="cls-1" cx="92.17" cy="92.17" r="76.12"/>
        <circle class="cls-2" cx="92.17" cy="92.17" r="82.21"/>
        <path class="cls-3" d="M92.17,16.04h-.19v152.24h.19c42.04,0,76.12-34.08,76.12-76.12S134.21,16.04,92.17,16.04Z"/>
        <g>
          <path class="cls-4" d="M73.03,38.16c1.01,2.28-.08,4.46-2.82,5.66l-2.06.91,1.25,2.82-2.37,1.04-4.52-10.24,4.43-1.96c2.74-1.21,5.07-.54,6.09,1.75v.02ZM70.63,39.22c-.5-1.13-1.52-1.46-2.97-.82l-1.93.85,1.57,3.56,1.93-.85c1.45-.64,1.89-1.62,1.4-2.73h0Z"/>
          <path class="cls-4" d="M74.86,33.48l2.53-.55,1.93,8.88,5.49-1.19.45,2.06-8.02,1.75s-2.38-10.95-2.38-10.95Z"/>
          <path class="cls-4" d="M93.53,40.1l-5.2.08-.95,2.41-2.65.04,4.81-11.27,2.56-.04,5.19,11.11-2.72.04-1.03-2.38h-.01ZM92.69,38.15l-1.84-4.26-1.71,4.31,3.55-.06h0Z"/>
          <path class="cls-4" d="M110.43,34.14l-2.56,10.91-2.07-.49-3.88-7.9-1.56,6.62-2.49-.59,2.56-10.91,2.09.49,3.87,7.9,1.56-6.62,2.49.59h-.01Z"/>
          <path class="cls-4" d="M111.74,40.42c1.54-2.95,4.99-3.93,8.12-2.29,3.12,1.63,4.29,5.01,2.74,7.98-1.55,2.96-5,3.92-8.12,2.29-3.13-1.64-4.29-5.03-2.74-7.98ZM120.27,44.89c.99-1.88.33-3.87-1.44-4.8-1.77-.93-3.78-.34-4.77,1.55s-.33,3.87,1.44,4.8c1.77.93,3.78.34,4.77-1.55Z"/>
        </g>
        <g>
          <polygon class="cls-5" points="62.01 84.14 84.52 106.65 77.78 106.65 55.27 84.14 62.01 84.14"/>
          <path class="cls-5" d="M97.66,106.65h-6.73l-18.83-18.83h5.75c4.73,0,8.87-3.52,9.62-8.19.08-.51.12-1.04.12-1.56s-.04-1.04-.12-1.56c-.77-4.75-4.81-8.19-9.62-8.19h-31.65l3.45,3.45h-6.74l-8.21-8.21h43.15c8,0,14.5,6.51,14.5,14.5,0,6.15-3.9,11.61-9.61,13.66l14.91,14.92h.01Z"/>
          <polygon class="cls-5" points="64.08 106.65 33.13 75.7 90.69 75.7 90.69 80.46 44.63 80.46 70.81 106.65 64.08 106.65"/>
          <g>
            <path class="cls-6" d="M35.56,122.6v-13.23h2.56v13.23s-2.56,0-2.56,0ZM37.36,118.21v-2.07h3.35c.47,0,.87-.1,1.22-.29.34-.19.61-.46.8-.81s.29-.74.29-1.19-.1-.86-.29-1.21-.46-.62-.8-.81-.75-.29-1.22-.29h-3.35v-2.18h3.08c1.06,0,1.97.16,2.74.47s1.37.79,1.79,1.42c.42.64.63,1.43.63,2.39v.29c0,.97-.21,1.77-.64,2.39s-1.02,1.09-1.79,1.4c-.77.31-1.68.47-2.74.47h-3.08v.02ZM43.58,122.6l-4.03-5.72h2.86l4.16,5.72h-2.99Z"/>
            <path class="cls-6" d="M48.51,122.6v-13.14h2.5v13.14h-2.5ZM50.66,111.62v-2.16h5.81v2.16h-5.81ZM50.66,117v-2.16h5.49v2.16h-5.49ZM50.66,122.6v-2.16h5.96v2.16h-5.96Z"/>
            <path class="cls-6" d="M65.36,122.94c-1.13,0-2.12-.19-2.98-.57s-1.58-.89-2.16-1.53c-.58-.64-1.02-1.37-1.31-2.18s-.44-1.65-.44-2.53v-.4c0-.83.14-1.64.43-2.43s.71-1.51,1.27-2.14c.56-.64,1.25-1.14,2.07-1.52s1.77-.57,2.84-.57c1.15,0,2.17.21,3.06.64s1.6,1.02,2.14,1.78.86,1.65.95,2.65h-2.57c-.08-.56-.29-1.05-.63-1.45s-.76-.71-1.27-.93c-.51-.22-1.07-.32-1.68-.32s-1.17.11-1.67.32c-.5.22-.92.52-1.27.92s-.62.87-.8,1.42-.28,1.16-.28,1.84c0,.73.1,1.39.31,1.96.2.58.49,1.07.86,1.47s.82.71,1.35.92c.53.21,1.12.32,1.78.32.88,0,1.64-.18,2.3-.55s1.14-.84,1.44-1.43l-.45,2.07v-3.38h2.36v2.92c-.56.85-1.33,1.51-2.3,1.99s-2.09.71-3.35.71h0ZM64.95,117.83v-1.91h7.16v1.91h-7.16Z"/>
            <path class="cls-6" d="M74.25,122.6v-13.14h2.56v13.14h-2.56Z"/>
            <path class="cls-6" d="M85.5,122.94c-1.22,0-2.26-.23-3.1-.7s-1.48-1.12-1.92-1.97-.66-1.84-.66-2.98v-7.83h2.56v7.97c0,.62.12,1.17.36,1.65.24.47.59.84,1.05,1.1.46.26,1.03.39,1.7.39s1.22-.13,1.68-.39.81-.62,1.04-1.09c.23-.47.35-1.02.35-1.66v-7.97h2.56v7.83c0,1.14-.21,2.13-.64,2.98-.43.85-1.06,1.5-1.9,1.97-.84.47-1.87.7-3.1.7h.02Z"/>
            <path class="cls-6" d="M98.61,122.94c-1.16,0-2.14-.19-2.94-.56-.8-.37-1.41-.88-1.83-1.54-.42-.65-.63-1.4-.63-2.22h2.5c0,.35.1.69.29,1.02.19.33.5.6.93.8s.99.31,1.68.31c.62,0,1.15-.09,1.57-.27s.73-.42.94-.71c.2-.29.31-.63.31-1,0-.47-.2-.84-.59-1.12-.4-.28-1.01-.46-1.84-.53l-1.15-.09c-1.26-.11-2.27-.5-3.02-1.18s-1.12-1.58-1.12-2.69c0-.84.2-1.56.59-2.17.4-.61.95-1.07,1.66-1.4.71-.33,1.55-.49,2.51-.49s1.85.17,2.57.52,1.28.84,1.67,1.47c.4.63.59,1.37.59,2.22h-2.5c0-.36-.09-.69-.26-1-.17-.31-.43-.55-.77-.74s-.78-.28-1.3-.28-.92.08-1.26.25-.59.4-.76.68-.25.6-.25.94c0,.41.15.77.45,1.07.3.31.77.48,1.42.53l1.15.11c.94.07,1.76.27,2.47.59s1.26.76,1.65,1.31c.39.55.58,1.22.58,2,0,.83-.22,1.56-.65,2.19-.43.63-1.05,1.12-1.84,1.47-.8.35-1.74.52-2.82.52h0Z"/>
            <path class="cls-6" d="M106.69,122.6v-13.19h1.37v13.19h-1.37ZM107.7,117.79v-1.21h3.06c.71,0,1.28-.13,1.73-.4.44-.27.77-.63.99-1.08.22-.45.32-.95.32-1.5s-.11-1.07-.32-1.52c-.22-.45-.55-.81-.99-1.07s-1.02-.4-1.73-.4h-3.06v-1.21h2.83c1.06,0,1.93.17,2.62.52s1.21.83,1.55,1.44c.34.61.51,1.31.51,2.11v.25c0,.78-.17,1.48-.51,2.1-.34.62-.86,1.1-1.55,1.45s-1.56.52-2.62.52c0,0-2.83,0-2.83,0Z"/>
            <path class="cls-6" d="M118.03,122.6v-13.19h1.37v13.19h-1.37ZM118.84,117.61v-1.22h3.53c.65,0,1.19-.13,1.62-.38s.76-.59.97-1.03c.22-.43.32-.92.32-1.48s-.11-1.04-.32-1.48c-.22-.43-.54-.78-.97-1.04s-.97-.39-1.62-.39h-3.53v-1.21h3.29c.97,0,1.8.15,2.47.46.68.31,1.19.76,1.55,1.35.35.59.53,1.32.53,2.17v.25c0,.85-.18,1.58-.54,2.17s-.88,1.04-1.55,1.35c-.67.31-1.49.46-2.47.46h-3.29v.02ZM126.18,122.6l-4.48-5.81h1.6l4.55,5.81h-1.67Z"/>
            <path class="cls-6" d="M130.39,122.6v-13.14h1.37v13.14h-1.37ZM131.44,110.7v-1.24h6.37v1.24h-6.37ZM131.44,116.54v-1.22h5.96v1.22h-5.96ZM131.44,122.6v-1.24h6.57v1.24h-6.57Z"/>
            <path class="cls-6" d="M144.32,122.6l-4.7-13.14h1.4l4.36,12.29-.74-.4h1.91l-.79.4,4.05-12.29h1.39l-4.41,13.14h-2.47Z"/>
          </g>
        </g>
      </g>
    </g>
  </g>
</svg>