<?xml version="1.0" encoding="UTF-8"?>
<svg id="Layer_2" data-name="Layer 2" xmlns="http://www.w3.org/2000/svg" viewBox="0 0 184.34 184.34">
  <defs>
    <style>
      .cls-1 {
        fill-rule: evenodd;
      }

      .cls-1, .cls-2 {
        fill: #022066;
      }

      .cls-3 {
        fill: #fff;
      }

      .cls-4 {
        fill: none;
        stroke: #fff;
        stroke-miterlimit: 10;
        stroke-width: 1px;
      }

      .cls-5 {
        fill: #d8dfef;
      }

      .cls-6 {
        fill: #0f6aab;
      }
    </style>
  </defs>
  <g id="Layer_2-2" data-name="Layer 2">
    <g id="OBJECTS">
      <g>
        <circle class="cls-2" cx="92.17" cy="92.17" r="92.17"/>
        <circle class="cls-6" cx="92.17" cy="92.17" r="85.92"/>
        <circle class="cls-3" cx="92.17" cy="92.17" r="76.12"/>
        <circle class="cls-4" cx="92.17" cy="92.17" r="82.21"/>
        <path class="cls-5" d="M92.17,16.04h-.19v152.24h.19c42.04,0,76.12-34.08,76.12-76.12S134.21,16.04,92.17,16.04Z"/>
        <g>
          <path class="cls-2" d="M73.03,38.16c1.01,2.28-.08,4.46-2.82,5.66l-2.06.91,1.25,2.82-2.37,1.04-4.52-10.24,4.43-1.96c2.74-1.21,5.07-.54,6.09,1.75v.02ZM70.63,39.22c-.5-1.13-1.52-1.46-2.97-.82l-1.93.85,1.57,3.56,1.93-.85c1.45-.64,1.89-1.62,1.4-2.73h0Z"/>
          <path class="cls-2" d="M74.86,33.48l2.53-.55,1.93,8.88,5.49-1.19.45,2.06-8.02,1.75s-2.38-10.95-2.38-10.95Z"/>
          <path class="cls-2" d="M93.53,40.1l-5.2.08-.95,2.41-2.65.04,4.81-11.27,2.56-.04,5.19,11.11-2.72.04-1.03-2.38h-.01ZM92.69,38.15l-1.84-4.26-1.71,4.31,3.55-.06h0Z"/>
          <path class="cls-2" d="M110.43,34.14l-2.56,10.91-2.07-.49-3.88-7.9-1.56,6.62-2.49-.59,2.56-10.91,2.09.49,3.87,7.9,1.56-6.62,2.49.59h-.01Z"/>
          <path class="cls-2" d="M111.74,40.42c1.55-2.95,4.99-3.93,8.12-2.29,3.12,1.63,4.29,5.01,2.74,7.98-1.55,2.96-5,3.92-8.12,2.29-3.13-1.64-4.29-5.03-2.74-7.98ZM120.27,44.89c.99-1.88.33-3.87-1.44-4.8s-3.78-.34-4.77,1.55-.33,3.87,1.44,4.8,3.78.34,4.77-1.55Z"/>
        </g>
        <path class="cls-1" d="M72.83,78.35c-4.68-1.89-10.01.36-11.9,5.04-1.9,4.68.36,10.01,5.04,11.91,4.61,1.87,9.84-.29,11.81-4.82h0l3.52-8.69-8.47-3.43h0ZM68.24,89.67c-1.57-.64-2.33-2.43-1.69-4s2.42-2.33,4-1.69c1.57.64,2.33,2.43,1.69,4s-2.43,2.33-4,1.69Z"/>
        <path class="cls-1" d="M99.48,67.07c-4.61-1.86-9.84.29-11.81,4.82h0l-3.52,8.68,8.47,3.43c4.68,1.9,10.01-.36,11.91-5.04s-.36-10.01-5.04-11.91M94.89,78.39c-1.57-.64-2.33-2.43-1.69-4s2.43-2.33,4-1.69,2.33,2.42,1.69,4c-.64,1.57-2.43,2.33-4,1.69ZM91.79,86.03l-8.47-3.43-3.52,8.69h0c-1.74,4.62.51,9.82,5.12,11.68,4.68,1.9,10.01-.36,11.9-5.04,1.9-4.68-.36-10.01-5.04-11.9h0ZM87.21,97.35c-1.57-.64-2.33-2.43-1.69-4s2.43-2.33,4-1.69,2.33,2.43,1.69,4-2.43,2.33-4,1.69Z"/>
        <path class="cls-1" d="M85.63,71.07c1.74-4.62-.51-9.82-5.12-11.68-4.68-1.9-10.01.36-11.9,5.04-1.9,4.68.36,10.01,5.04,11.9l8.47,3.43,3.52-8.69h0ZM75.93,70.7c-1.57-.64-2.33-2.43-1.69-4s2.43-2.33,4-1.69,2.33,2.43,1.69,4c-.63,1.57-2.43,2.33-4,1.69Z"/>
        <path class="cls-2" d="M49.87,123.29c-.34,0-.74-.01-1.19-.03-.46-.02-.93-.06-1.41-.12-.49-.06-.97-.14-1.44-.22-.47-.09-.91-.22-1.3-.37-1.09-.42-1.63-1.14-1.63-2.17v-13.87c0-.41.11-.74.34-.97s.54-.41.94-.55c.67-.24,1.52-.41,2.53-.52,1.01-.11,2.04-.16,3.12-.16,2.53,0,4.48.42,5.85,1.27,1.36.85,2.05,2.17,2.05,3.95,0,.89-.26,1.66-.78,2.3s-1.21,1.11-2.08,1.41c.99.28,1.82.78,2.48,1.52.66.73.99,1.65.99,2.76,0,1.96-.72,3.41-2.18,4.35-1.46.94-3.55,1.41-6.28,1.41h0ZM47.94,111.87h2.17c.85,0,1.47-.16,1.85-.48.39-.31.58-.78.58-1.39,0-.53-.22-.96-.66-1.27-.45-.32-1.12-.48-2-.48-.3,0-.64.01-1.03.03s-.69.05-.91.09c0,0,0,3.5,0,3.5ZM47.94,119.11c.28.08.63.13,1.07.16.43.03.85.05,1.24.05.79,0,1.45-.16,1.97-.49.53-.33.79-.84.79-1.53,0-.65-.22-1.12-.65-1.39-.44-.28-1.1-.42-1.99-.42h-2.44v3.62h0Z"/>
        <path class="cls-2" d="M65.85,122.79c-.2.06-.51.12-.94.18-.42.06-.87.09-1.32.09s-.83-.03-1.17-.09c-.35-.06-.64-.18-.88-.35-.24-.18-.42-.42-.55-.73-.13-.31-.2-.7-.2-1.2v-8.91c0-.45.09-.85.26-1.17.17-.33.41-.62.72-.88s.71-.49,1.17-.69c.46-.21.97-.39,1.5-.55s1.09-.28,1.66-.37c.57-.09,1.15-.14,1.72-.14.95,0,1.7.19,2.26.55.55.37.84.97.84,1.8,0,.28-.04.55-.12.82s-.18.51-.3.73c-.42,0-.84.02-1.28.06-.43.04-.86.1-1.27.18-.42.08-.81.16-1.17.25s-.68.19-.94.31v10.12h.01Z"/>
        <g>
          <path class="cls-2" d="M78.49,107.94c1.07,0,2.04.11,2.93.33s1.63.55,2.26,1c.62.44,1.1,1.01,1.44,1.69s.5,1.49.5,2.42v6.65c0,.51-.14.93-.43,1.26s-.63.61-1.03.85c-1.28.78-3.1,1.16-5.43,1.16-1.05,0-1.99-.1-2.83-.3-.84-.2-1.57-.49-2.17-.89-.6-.39-1.07-.9-1.39-1.51s-.49-1.33-.49-2.14c0-1.36.4-2.42,1.22-3.15.81-.74,2.07-1.19,3.77-1.36l3.89-.42v-.21c0-.57-.25-.99-.76-1.23s-1.23-.37-2.19-.37c-.75,0-1.48.08-2.2.24-.71.16-1.35.36-1.93.59-.26-.18-.48-.45-.65-.82-.18-.36-.27-.75-.27-1.14,0-.51.12-.93.37-1.23.25-.31.62-.57,1.14-.79.57-.22,1.25-.38,2.03-.47.78-.1,1.52-.15,2.21-.15h0ZM78.73,119.61c.34,0,.71-.04,1.11-.11.41-.07.71-.16.91-.28v-2.37l-2.13.18c-.56.04-1.01.16-1.37.36s-.53.49-.53.89.16.71.46.96c.3.25.83.37,1.56.37h-.01Z"/>
          <path class="cls-2" d="M100.88,118.52c0,1.51-.56,2.68-1.69,3.53s-2.79,1.27-4.99,1.27c-.83,0-1.6-.06-2.32-.18-.71-.12-1.32-.3-1.83-.55-.5-.25-.9-.56-1.19-.94s-.43-.82-.43-1.33c0-.48.1-.88.3-1.2.2-.33.43-.6.71-.82.57.31,1.23.6,1.98.85.74.25,1.6.37,2.57.37.61,0,1.08-.09,1.41-.27s.49-.41.49-.71c0-.28-.12-.5-.36-.65-.24-.16-.63-.29-1.19-.39l-.89-.18c-1.73-.34-3.01-.87-3.85-1.59-.84-.72-1.26-1.75-1.26-3.1,0-.73.16-1.39.48-1.99.31-.59.76-1.09,1.33-1.49s1.26-.7,2.06-.92c.8-.22,1.69-.33,2.66-.33.73,0,1.42.06,2.06.17s1.2.27,1.68.49c.47.22.85.5,1.13.85s.41.76.41,1.23-.08.85-.25,1.17c-.17.33-.38.6-.63.82-.16-.1-.4-.2-.71-.31-.32-.11-.66-.21-1.04-.3-.38-.09-.76-.16-1.15-.22-.38-.06-.74-.09-1.05-.09-.65,0-1.16.08-1.52.22-.35.15-.53.38-.53.7,0,.22.1.4.3.53.2.14.57.27,1.13.39l.92.21c1.9.44,3.25,1.04,4.05,1.8s1.2,1.75,1.2,2.96h0Z"/>
          <path class="cls-2" d="M107.77,100.73c1.03,0,1.78.2,2.24.59.47.4.7.87.7,1.42,0,.51-.14.95-.42,1.29s-.73.68-1.36,1.02l-3.83,2.02c-.59-.06-1.1-.3-1.51-.71s-.62-.86-.62-1.34c0-.24.06-.47.18-.71s.32-.46.59-.65l4.04-2.94h0ZM108.48,122.79c-.22.04-.54.1-.97.17s-.86.1-1.29.1-.83-.03-1.17-.09-.63-.18-.88-.35c-.24-.18-.42-.42-.55-.73-.13-.31-.19-.7-.19-1.2v-12.08c.22-.04.54-.1.97-.16.42-.07.86-.11,1.29-.11s.83.03,1.17.09c.35.06.64.18.88.35.24.18.42.42.55.73.13.31.2.71.2,1.2v12.08h0Z"/>
          <path class="cls-2" d="M116.83,122.79c-.22.04-.54.1-.97.17s-.86.1-1.29.1-.83-.03-1.17-.09c-.35-.06-.64-.18-.88-.35-.24-.18-.42-.42-.55-.73-.13-.31-.19-.7-.19-1.2v-17.22c.22-.04.54-.1.97-.17.42-.07.86-.1,1.29-.1s.83.03,1.17.09c.35.06.64.18.88.36s.42.42.55.73c.13.31.2.7.2,1.2v17.22h0Z"/>
          <path class="cls-2" d="M119.88,104.38c0-.76.25-1.39.76-1.9.5-.51,1.17-.77,2-.77s1.5.26,2,.77.76,1.15.76,1.9-.25,1.38-.76,1.9-1.17.77-2,.77-1.5-.26-2-.77c-.51-.51-.76-1.15-.76-1.9ZM125.17,122.79c-.22.04-.54.1-.97.17-.42.07-.86.1-1.29.1s-.83-.03-1.17-.09c-.35-.06-.64-.18-.88-.35-.24-.18-.42-.42-.55-.73-.13-.31-.19-.7-.19-1.2v-12.08c.22-.04.54-.1.96-.16.43-.07.86-.11,1.29-.11s.83.03,1.17.09.64.18.88.35c.24.18.42.42.55.73.13.31.19.71.19,1.2v12.08h.01Z"/>
          <path class="cls-2" d="M134.31,107.94c1.07,0,2.04.11,2.93.33s1.64.55,2.26,1c.62.44,1.1,1.01,1.44,1.69.33.68.5,1.49.5,2.42v6.65c0,.51-.15.93-.43,1.26s-.62.61-1.02.85c-1.29.78-3.1,1.16-5.43,1.16-1.05,0-2-.1-2.84-.3-.84-.2-1.56-.49-2.16-.89-.6-.39-1.07-.9-1.39-1.51s-.49-1.33-.49-2.14c0-1.36.41-2.42,1.22-3.15.81-.74,2.07-1.19,3.77-1.36l3.89-.42v-.21c0-.57-.25-.99-.76-1.23-.5-.25-1.23-.37-2.18-.37-.76,0-1.49.08-2.2.24-.71.16-1.35.36-1.93.59-.26-.18-.47-.45-.65-.82-.18-.36-.27-.75-.27-1.14,0-.51.13-.93.37-1.23s.63-.57,1.14-.79c.57-.22,1.25-.38,2.03-.47.78-.1,1.52-.15,2.21-.15h-.01ZM134.55,119.61c.33,0,.7-.04,1.11-.11.4-.07.7-.16.91-.28v-2.37l-2.14.18c-.55.04-1.01.16-1.36.36-.36.2-.53.49-.53.89s.15.71.46.96c.31.25.83.37,1.56.37h-.01Z"/>
        </g>
        <path class="cls-2" d="M68.77,142.57c-.22.06-.56.12-1.03.18-.46.06-.93.09-1.38.09s-.86-.03-1.2-.1-.64-.19-.88-.37-.41-.42-.53-.74-.18-.74-.18-1.25v-13.99c0-.41.11-.74.34-.97s.54-.41.94-.55c.67-.24,1.44-.41,2.3-.52.86-.11,1.73-.16,2.6-.16,2.73,0,4.82.58,6.27,1.75s2.16,2.75,2.16,4.75c0,.97-.15,1.85-.46,2.63-.31.79-.77,1.46-1.36,2.02-.6.56-1.37,1-2.29,1.31s-1.98.46-3.19.46h-2.1v5.46h-.01ZM70.31,133.04c.84,0,1.47-.19,1.92-.58.44-.38.66-.97.66-1.77,0-.75-.23-1.33-.69-1.74-.47-.4-1.14-.61-2.03-.61-.32,0-.58,0-.79.02-.21,0-.42.04-.64.08v4.6h1.57Z"/>
        <path class="cls-2" d="M84.89,142.66c-.2.06-.51.12-.94.18-.42.06-.87.09-1.32.09s-.83-.03-1.17-.09c-.35-.06-.64-.18-.88-.35-.24-.18-.42-.42-.55-.73-.13-.31-.2-.7-.2-1.2v-8.91c0-.45.09-.85.26-1.17.17-.33.41-.62.72-.88s.71-.49,1.17-.69c.46-.21.97-.39,1.5-.55s1.09-.28,1.66-.37c.57-.09,1.15-.14,1.72-.14.95,0,1.7.19,2.26.55.55.37.84.97.84,1.8,0,.28-.04.55-.12.82s-.18.51-.3.73c-.42,0-.84.02-1.28.06-.43.04-.86.1-1.27.18-.42.08-.81.16-1.17.25s-.68.19-.94.31v10.12h0Z"/>
        <path class="cls-2" d="M99.12,143.17c-1.17,0-2.25-.16-3.25-.49s-1.87-.82-2.61-1.47-1.32-1.48-1.75-2.46c-.42-.99-.63-2.15-.63-3.47s.21-2.43.63-3.37c.43-.94.99-1.71,1.68-2.32.69-.6,1.48-1.05,2.37-1.33s1.8-.43,2.73-.43c1.05,0,2,.16,2.86.48.86.32,1.61.75,2.23,1.3s1.11,1.22,1.46,1.99c.35.78.52,1.62.52,2.53,0,.67-.19,1.18-.56,1.54-.38.36-.9.58-1.58.68l-7.34,1.1c.22.65.66,1.14,1.34,1.47.67.33,1.44.49,2.32.49.81,0,1.58-.1,2.3-.31.72-.21,1.31-.45,1.77-.72.32.2.58.47.8.83s.33.74.33,1.13c0,.89-.42,1.56-1.25,1.99-.63.34-1.34.56-2.14.68-.79.12-1.53.18-2.23.18v-.02ZM98.28,131.5c-.47,0-.89.08-1.23.24-.35.16-.63.36-.85.61s-.38.52-.49.83-.18.62-.19.94l5.07-.84c-.06-.39-.28-.79-.65-1.18-.37-.4-.93-.59-1.66-.59h0Z"/>
        <path class="cls-2" d="M117.32,142.31c-.28.22-.68.4-1.22.53-.53.14-1.14.21-1.81.21-.78,0-1.44-.1-2-.3-.57-.2-.96-.51-1.17-.95-.18-.34-.39-.81-.64-1.41s-.51-1.28-.79-2.02c-.28-.75-.56-1.54-.86-2.39s-.58-1.69-.85-2.52-.51-1.64-.72-2.41-.4-1.46-.53-2.05c.28-.28.64-.52,1.11-.72.46-.21.97-.31,1.53-.31.69,0,1.26.14,1.71.43.44.29.78.83.99,1.62l1.16,4.54c.22.89.43,1.7.62,2.42.2.72.35,1.28.45,1.68h.15c.38-1.47.77-3.09,1.19-4.87s.79-3.53,1.13-5.26c.34-.18.72-.32,1.14-.42.43-.1.84-.15,1.23-.15.69,0,1.28.15,1.75.44s.71.81.71,1.55c0,.32-.07.78-.22,1.38s-.34,1.29-.56,2.05-.49,1.57-.8,2.42-.62,1.68-.94,2.49-.63,1.57-.94,2.27c-.31.7-.58,1.28-.82,1.74h0Z"/>
      </g>
    </g>
  </g>
</svg>