<?xml version="1.0" encoding="UTF-8"?>
<svg id="Layer_2" data-name="Layer 2" xmlns="http://www.w3.org/2000/svg" viewBox="0 0 184.34 184.34">
  <defs>
    <style>
      .cls-1 {
        fill: #d98d31;
      }

      .cls-1, .cls-2, .cls-3, .cls-4, .cls-5, .cls-6, .cls-7, .cls-8, .cls-9, .cls-10, .cls-11, .cls-12 {
        fill-rule: evenodd;
      }

      .cls-2, .cls-13 {
        fill: #fff;
      }

      .cls-3 {
        fill: #d97b1d;
      }

      .cls-4 {
        fill: #dd892e;
      }

      .cls-14, .cls-11 {
        fill: #495d7b;
      }

      .cls-5 {
        fill: #dd9d4b;
      }

      .cls-6, .cls-15 {
        fill: #2e4365;
      }

      .cls-16 {
        fill: none;
        stroke: #fff;
        stroke-miterlimit: 10;
        stroke-width: 1px;
      }

      .cls-7 {
        fill: #f3f5eb;
      }

      .cls-17 {
        fill: #d8dfef;
      }

      .cls-8 {
        fill: #fdfdfd;
      }

      .cls-18 {
        fill: #022066;
      }

      .cls-9 {
        fill: #62a3b1;
      }

      .cls-10 {
        fill: #9fae57;
      }

      .cls-19 {
        fill: #0f6aab;
      }

      .cls-12 {
        fill: #e19a48;
      }
    </style>
  </defs>
  <g id="Layer_2-2" data-name="Layer 2">
    <g id="OBJECTS">
      <g>
        <circle class="cls-18" cx="92.17" cy="92.17" r="92.17"/>
        <circle class="cls-19" cx="92.17" cy="92.17" r="85.92"/>
        <circle class="cls-13" cx="92.17" cy="92.17" r="76.12"/>
        <circle class="cls-16" cx="92.17" cy="92.17" r="82.21"/>
        <path class="cls-17" d="M92.17,16.04h-.19v152.24h.19c42.04,0,76.12-34.08,76.12-76.12S134.21,16.04,92.17,16.04Z"/>
        <g>
          <path class="cls-18" d="M73.03,38.16c1.01,2.28-.08,4.46-2.82,5.66l-2.06.91,1.25,2.82-2.37,1.04-4.52-10.24,4.43-1.96c2.74-1.21,5.07-.54,6.09,1.75v.02ZM70.63,39.22c-.5-1.13-1.52-1.46-2.97-.82l-1.93.85,1.57,3.56,1.93-.85c1.45-.64,1.89-1.62,1.4-2.73h0Z"/>
          <path class="cls-18" d="M74.86,33.48l2.53-.55,1.93,8.88,5.49-1.19.45,2.06-8.02,1.75s-2.38-10.95-2.38-10.95Z"/>
          <path class="cls-18" d="M93.53,40.1l-5.2.08-.95,2.41-2.65.04,4.81-11.27,2.56-.04,5.19,11.11-2.72.04-1.03-2.38h-.01ZM92.69,38.15l-1.84-4.26-1.71,4.31,3.55-.06h0Z"/>
          <path class="cls-18" d="M110.43,34.14l-2.56,10.91-2.07-.49-3.88-7.9-1.56,6.62-2.49-.59,2.56-10.91,2.09.49,3.87,7.9,1.56-6.62,2.49.59h-.01Z"/>
          <path class="cls-18" d="M111.74,40.42c1.54-2.95,4.99-3.93,8.12-2.29,3.12,1.63,4.29,5.01,2.74,7.98-1.55,2.96-5,3.92-8.12,2.29-3.13-1.64-4.29-5.03-2.74-7.98ZM120.27,44.9c.99-1.88.33-3.87-1.44-4.8-1.77-.93-3.78-.34-4.77,1.55s-.33,3.87,1.44,4.8c1.77.93,3.78.34,4.77-1.55Z"/>
        </g>
        <g>
          <path class="cls-18" d="M44.84,120.82c2.73-1.61,5.91-.66,7.57,2.16.92,1.56,1.12,3.2.59,4.67l-2.03-.61c.34-1.02.25-1.99-.28-2.9-1-1.69-2.89-2.2-4.6-1.19-1.71,1-2.19,2.91-1.19,4.6.53.9,1.34,1.45,2.41,1.64l-.45,2.08c-1.55-.24-2.89-1.21-3.82-2.78-1.65-2.8-.93-6.05,1.79-7.66h0Z"/>
          <path class="cls-18" d="M54.94,127.4l3.29,3.45c2.37,2.48,2.5,5.62.2,7.81s-5.42,1.92-7.8-.56l-3.29-3.45,7.59-7.25h0ZM52,136.63c1.44,1.51,3.28,1.64,4.74.25,1.45-1.39,1.41-3.24-.03-4.74l-1.53-1.61-4.71,4.5,1.53,1.61h0Z"/>
          <path class="cls-18" d="M59.86,139.62l3.43,2.5-1.1,1.52-3.43-2.5,1.1-1.52Z"/>
          <path class="cls-18" d="M71.64,152.28l2.61-5.74-4.97,3.43-1-.46-.69-5.88-2.57,5.61-2.07-.95,4.38-9.55,1.83.84.85,7.57,6.24-4.32,1.81.83-4.35,9.56-2.07-.95h0Z"/>
          <path class="cls-18" d="M86.09,153.84l-.36,1.92-7.99-1.51,1.95-10.32,7.8,1.48-.36,1.92-5.42-1.03-.42,2.24,4.79.91-.35,1.86-4.79-.91-.45,2.39,5.62,1.06h-.02Z"/>
          <path class="cls-18" d="M91.07,147.45l-3.36.05-.03-1.98,9.15-.15.03,1.98-3.36.05.14,8.52-2.43.04-.14-8.52h0Z"/>
          <path class="cls-18" d="M106.1,154.3l-2.57-2.46-.12.02-2.07.42.59,2.87-2.38.49-2.1-10.29,4.45-.91c2.75-.56,4.76.51,5.23,2.82.32,1.54-.23,2.83-1.45,3.68l2.98,2.83-2.56.52h0ZM102.16,146.41l-1.94.4.73,3.59,1.94-.4c1.46-.3,2.05-1.12,1.82-2.24-.23-1.13-1.1-1.64-2.56-1.34h0Z"/>
          <path class="cls-18" d="M108.99,148.26c-1.32-2.83-.1-5.95,2.9-7.35,2.99-1.4,6.17-.36,7.5,2.48s.09,5.95-2.9,7.35c-3,1.41-6.18.35-7.5-2.48ZM117.16,144.42c-.85-1.81-2.7-2.44-4.4-1.65-1.7.8-2.4,2.63-1.55,4.44s2.7,2.44,4.4,1.65c1.7-.79,2.39-2.63,1.55-4.44Z"/>
          <path class="cls-18" d="M120.74,142.31l3.45-2.47,1.09,1.52-3.45,2.47-1.09-1.52Z"/>
          <path class="cls-18" d="M122.27,134.81l3.32-3.42c2.39-2.46,5.52-2.71,7.8-.49s2.12,5.35-.27,7.81l-3.32,3.42-7.53-7.32h0ZM131.61,137.4c1.45-1.5,1.51-3.34.07-4.74s-3.29-1.29-4.74.21l-1.55,1.59,4.67,4.54,1.55-1.59h0Z"/>
          <path class="cls-18" d="M133.01,125.25l2.36,1.46,2.56-4.13,1.66,1.03-2.56,4.13,3.25,2.02-1.28,2.07-8.93-5.53,4.18-6.75,1.66,1.03-2.9,4.68h0Z"/>
        </g>
        <g>
          <path class="cls-6" d="M61.48,60.89l13.52,13.52h12.31v-.15c0-.43.34-.77.77-.77h1.3v-1.59h1.86v1.59h1.86v-1.59h1.86v1.59h1.3c.42,0,.77.34.77.77v.15h12.31l13.52-13.52c-16.94-16.94-44.43-16.94-61.37,0M106.42,71.2l-.64,1.12c-.17.29-.52.39-.81.25l-3.75-1.91h-18.09l-3.75,1.91c-.3.14-.66.04-.82-.25l-.64-1.12c-.19-.34-.06-.77.28-.94l4.46-2.27c.3-.15.65-.23,1-.23h17.04c.35,0,.68.08,1,.23l4.46,2.26c.34.17.47.6.28.94h-.02Z"/>
          <path class="cls-3" d="M122.85,122.26l-8.77-8.77v-34.89c0-2.31-1.87-4.19-4.19-4.19h-.56l13.52-13.52c16.95,16.95,16.94,44.43,0,61.37"/>
          <path class="cls-6" d="M122.85,122.26c-2.31,2.32-4.82,4.31-7.48,6l-6.04-5.29h-8.68l2.22,3.93h-21.39l2.22-3.93h-8.67l-6.04,5.29c-2.66-1.68-5.17-3.68-7.49-6l8.78-8.78v3.51c0,2.31,1.87,4.18,4.19,4.18h35.44c2.31,0,4.19-1.87,4.19-4.18v-3.5l8.77,8.77h-.02Z"/>
          <path class="cls-4" d="M75,74.41h-.56c-2.31,0-4.19,1.87-4.19,4.19v34.88l-8.78,8.78c-16.94-16.94-16.94-44.43,0-61.37l13.52,13.52h0Z"/>
          <path class="cls-1" d="M79.35,116.19c-2.39,0-4.34-1.95-4.34-4.34s1.95-4.34,4.34-4.34,4.34,1.94,4.34,4.34-1.95,4.34-4.34,4.34"/>
          <path class="cls-3" d="M104.98,116.19c-2.39,0-4.34-1.95-4.34-4.34s1.95-4.34,4.34-4.34,4.34,1.94,4.34,4.34-1.95,4.34-4.34,4.34"/>
          <path class="cls-15" d="M77.03,78.84h30.28c1.11,0,2.02.9,2.02,2.02v14.92c0,1.11-.9,2.02-2.02,2.02h-30.27c-1.11,0-2.02-.9-2.02-2.02v-14.92c0-1.11.9-2.02,2.02-2.02h0Z"/>
          <path class="cls-8" d="M77.91,71.19l.64,1.11c.17.29.52.39.81.25l3.75-1.9h9.05v2.83h-.93v-1.6h-1.86v1.6h-1.3c-.42,0-.77.34-.77.77v.15h-12.31l-13.52-13.52c8.47-8.47,19.58-12.71,30.69-12.71v19.58h-8.52c-.35,0-.68.08-1,.23l-4.46,2.26c-.34.18-.47.61-.28.94h.01Z"/>
          <path class="cls-10" d="M77.91,71.19l.64,1.11c.17.29.52.39.81.25l3.75-1.9h9.05v2.83h-.93v-1.6h-1.86v1.6h-1.3c-.42,0-.77.34-.77.77v.15h-12.31l-13.52-13.52c8.47-8.47,19.58-12.71,30.69-12.71v19.58h-8.52c-.35,0-.68.08-1,.23l-4.46,2.26c-.34.18-.47.61-.28.94h.01Z"/>
          <path class="cls-9" d="M77.91,71.19l.64,1.11c.17.29.52.39.81.25l3.75-1.9h9.05v2.83h-.93v-1.6h-1.86v1.6h-1.3c-.42,0-.77.34-.77.77v.15h-12.31l-13.52-13.52c8.47-8.47,19.58-12.71,30.69-12.71v19.58h-8.52c-.35,0-.68.08-1,.23l-4.46,2.26c-.34.18-.47.61-.28.94h.01Z"/>
          <path class="cls-11" d="M77.91,71.19l.64,1.11c.17.29.52.39.81.25l3.75-1.9h9.05v2.83h-.93v-1.6h-1.86v1.6h-1.3c-.42,0-.77.34-.77.77v.15h-12.31l-13.52-13.52c8.47-8.47,19.58-12.71,30.69-12.71v19.58h-8.52c-.35,0-.68.08-1,.23l-4.46,2.26c-.34.18-.47.61-.28.94h.01Z"/>
          <path class="cls-2" d="M77.91,71.19l.64,1.11c.17.29.52.39.81.25l3.75-1.9h9.05v2.83h-.93v-1.6h-1.86v1.6h-1.3c-.42,0-.77.34-.77.77v.15h-12.31l-13.52-13.52c8.47-8.47,19.58-12.71,30.69-12.71v19.58h-8.52c-.35,0-.68.08-1,.23l-4.46,2.26c-.34.18-.47.61-.28.94h.01Z"/>
          <path class="cls-11" d="M92.17,70.65h-9.05l-3.75,1.91c-.3.14-.66.04-.82-.25l-.64-1.12v-.02h-.02v-.03h0v-.02h0v-.02h0v-.02h0v-.02h0v-.02h0v-.02h0v-.02h0v-.02h0v-.02h0v-.02h0v-.02h0v-.02h0v-.02h0v-.02h0v-.02h0v-.02h0v-.02h0v-.02h0v-.02h0v-.02h0v-.02h0v-.02h0v-.02h0v-.02h0v-.02h0v-.02h0v-.02h0v-.02h0v-.02h0v-.02h0v-.02h0v-.02h0v-.02h0v-.02h0v-.02h0v-.03h0v-.02c.06-.11.16-.2.27-.26l4.46-2.26c.31-.15.65-.23,1-.23h8.52v-19.58h-1.04l-1.04.05h0l-1.04.06-1.04.09-1.04.11h0l-1.03.14h0c-.34.05-.69.1-1.03.16h0l-1.03.19h0c-.34.07-.68.14-1.02.21l-1.02.24h0c-.34.09-.68.17-1.02.26h0c-.34.09-.67.19-1.01.29h0c-.67.2-1.34.41-2,.65h0c-1.33.46-2.63.99-3.92,1.59h0c-.64.3-1.28.61-1.91.94h0l-.94.51h0c-.31.17-.62.35-.93.53h0c-1.23.73-2.44,1.52-3.61,2.38h0l-.87.66h0c-.58.45-1.15.91-1.7,1.39h0l-.83.73h0l-.82.76h0c-.27.26-.54.52-.8.78l13.52,13.52h12.31v-.15h0v-.04h0v-.04h0v-.04h0v-.04h0v-.04h0v-.04h.01v-.03h.01v-.04h.01l.02-.03h0l.02-.03h0l.02-.03h0l.02-.03h0l.02-.03c.05-.06.1-.11.16-.16h0l.09-.06h0c.09-.05.19-.08.29-.09h1.38v-1.59h1.86v1.6h.93v-2.83l.05.09Z"/>
          <path class="cls-8" d="M77.91,71.19l.64,1.11c.17.29.52.39.81.25l3.75-1.9h9.05v2.83h-.93v-1.6h-1.86v1.6h-1.3c-.42,0-.77.34-.77.77v.15h-12.31l-13.52-13.52c8.47-8.47,19.58-12.71,30.69-12.71v19.58h-8.52c-.35,0-.68.08-1,.23l-4.46,2.26c-.34.18-.47.61-.28.94h.01Z"/>
          <path class="cls-7" d="M77.91,71.19l.64,1.11c.17.29.52.39.81.25l3.75-1.9h9.05v2.83h-.93v-1.6h-1.86v1.6h-1.3c-.42,0-.77.34-.77.77v.15h-12.31l-13.52-13.52c8.47-8.47,19.58-12.71,30.69-12.71v19.58h-8.52c-.35,0-.68.08-1,.23l-4.46,2.26c-.34.18-.47.61-.28.94h.01Z"/>
          <path class="cls-9" d="M77.91,71.19l.64,1.11c.17.29.52.39.81.25l3.75-1.9h9.05v2.83h-.93v-1.6h-1.86v1.6h-1.3c-.42,0-.77.34-.77.77v.15h-12.31l-13.52-13.52c8.47-8.47,19.58-12.71,30.69-12.71v19.58h-8.52c-.35,0-.68.08-1,.23l-4.46,2.26c-.34.18-.47.61-.28.94h.01Z"/>
          <path class="cls-11" d="M77.91,71.19l.64,1.11c.17.29.52.39.81.25l3.75-1.9h9.05v2.83h-.93v-1.6h-1.86v1.6h-1.3c-.42,0-.77.34-.77.77v.15h-12.31l-13.52-13.52c8.47-8.47,19.58-12.71,30.69-12.71v19.58h-8.52c-.35,0-.68.08-1,.23l-4.46,2.26c-.34.18-.47.61-.28.94h.01Z"/>
          <path class="cls-2" d="M77.91,71.19l.64,1.11c.17.29.52.39.81.25l3.75-1.9h9.05v2.83h-.93v-1.6h-1.86v1.6h-1.3c-.42,0-.77.34-.77.77v.15h-12.31l-13.52-13.52c8.47-8.47,19.58-12.71,30.69-12.71v19.58h-8.52c-.35,0-.68.08-1,.23l-4.46,2.26c-.34.18-.47.61-.28.94h.01Z"/>
          <path class="cls-11" d="M92.17,70.65h-9.05l-3.75,1.91c-.3.14-.66.04-.82-.25l-.64-1.12v-.02h-.02v-.03h0v-.02h0v-.02h0v-.02h0v-.02h0v-.02h0v-.02h0v-.02h0v-.02h0v-.02h0v-.02h0v-.02h0v-.02h0v-.02h0v-.02h0v-.02h0v-.02h0v-.02h0v-.02h0v-.02h0v-.02h0v-.02h0v-.02h0v-.02h0v-.02h0v-.02h0v-.02h0v-.02h0v-.02h0v-.02h0v-.02h0v-.02h0v-.02h0v-.02h0v-.02h0v-.02h0v-.03h0v-.02c.06-.11.16-.2.27-.26l4.46-2.26c.31-.15.65-.23,1-.23h8.52v-19.58h-1.04l-1.04.05h0l-1.04.06-1.04.09-1.04.11h0l-1.03.14h0c-.34.05-.69.1-1.03.16h0l-1.03.19h0c-.34.07-.68.14-1.02.21l-1.02.24h0c-.34.09-.68.17-1.02.26h0c-.34.09-.67.19-1.01.29h0c-.67.2-1.34.41-2,.65h0c-1.33.46-2.63.99-3.92,1.59h0c-.64.3-1.28.61-1.91.94h0l-.94.51h0c-.31.17-.62.35-.93.53h0c-1.23.73-2.44,1.52-3.61,2.38h0l-.87.66h0c-.58.45-1.15.91-1.7,1.39h0l-.83.73h0l-.82.76h0c-.27.26-.54.52-.8.78l13.52,13.52h12.31v-.15h0v-.04h0v-.04h0v-.04h0v-.04h0v-.04h0v-.04h.01v-.03h.01v-.04h.01l.02-.03h0l.02-.03h0l.02-.03h0l.02-.03h0l.02-.03c.05-.06.1-.11.16-.16h0l.09-.06h0c.09-.05.19-.08.29-.09h1.38v-1.59h1.86v1.6h.93v-2.83l.05.09Z"/>
          <path class="cls-8" d="M61.49,122.26l8.77-8.77v-34.89c0-2.31,1.87-4.18,4.19-4.18h.56l-13.52-13.52c-16.95,16.95-16.94,44.43,0,61.37h0Z"/>
          <path class="cls-10" d="M61.49,122.26l8.77-8.77v-34.89c0-2.31,1.87-4.18,4.19-4.18h.56l-13.52-13.52c-16.95,16.95-16.94,44.43,0,61.37h0Z"/>
          <path class="cls-9" d="M61.49,122.26l8.77-8.77v-34.89c0-2.31,1.87-4.18,4.19-4.18h.56l-13.52-13.52c-16.95,16.95-16.94,44.43,0,61.37h0Z"/>
          <path class="cls-11" d="M61.49,122.26l8.77-8.77v-34.89c0-2.31,1.87-4.18,4.19-4.18h.56l-13.52-13.52c-16.95,16.95-16.94,44.43,0,61.37h0Z"/>
          <path class="cls-2" d="M61.49,122.26l8.77-8.77v-34.89c0-2.31,1.87-4.18,4.19-4.18h.56l-13.52-13.52c-16.95,16.95-16.94,44.43,0,61.37h0Z"/>
          <polygon class="cls-11" points="75 74.41 75 74.41 61.48 60.89 61.48 60.88 61.48 60.89 75 74.41"/>
          <polygon class="cls-14" points="61.49 122.24 70.27 113.47 70.27 113.47 61.49 122.24"/>
          <path class="cls-12" d="M70.82,76.51l-.05.09h0l-.05.09h0l-.05.09h0l-.12.28h0l-.07.2-.03.09h0l-.03.1h0l-.03.1h0l-.02.1h0l-.02.1h0l-.02.1h0l-.02.1h0v.1h-.01v.11h-.01v.1h0v.11h0v.11h0v.11h0v34.89l-8.77,8.77c-5.03-5.03-8.57-10.99-10.61-17.32h0c-.22-.67-.41-1.34-.6-2.01h0l-.26-1.02h0l-.24-1.02h0c-.08-.34-.14-.68-.21-1.02h0l-.19-1.03h0c-.06-.34-.11-.69-.16-1.03h0l-.14-1.03h0c-.04-.35-.08-.69-.11-1.04h0l-.09-1.04h0l-.06-1.04h0l-.04-1.04h0c-.17-7.29,1.48-14.61,4.95-21.23h0c.99-1.89,2.13-3.72,3.42-5.48h0l.66-.87h0c.45-.58.91-1.15,1.39-1.7h0c.24-.28.48-.56.73-.83h0c.5-.55,1.01-1.09,1.54-1.62l13.52,13.52h-.56c-1.55,0-2.91.85-3.63,2.11"/>
          <path class="cls-8" d="M61.49,122.26l8.77-8.77v-34.89c0-2.31,1.87-4.18,4.19-4.18h.56l-13.52-13.52c-16.95,16.95-16.94,44.43,0,61.37h0Z"/>
          <path class="cls-7" d="M61.49,122.26l8.77-8.77v-34.89c0-2.31,1.87-4.18,4.19-4.18h.56l-13.52-13.52c-16.95,16.95-16.94,44.43,0,61.37h0Z"/>
          <path class="cls-9" d="M61.49,122.26l8.77-8.77v-34.89c0-2.31,1.87-4.18,4.19-4.18h.56l-13.52-13.52c-16.95,16.95-16.94,44.43,0,61.37h0Z"/>
          <path class="cls-11" d="M61.49,122.26l8.77-8.77v-34.89c0-2.31,1.87-4.18,4.19-4.18h.56l-13.52-13.52c-16.95,16.95-16.94,44.43,0,61.37h0Z"/>
          <path class="cls-2" d="M61.49,122.26l8.77-8.77v-34.89c0-2.31,1.87-4.18,4.19-4.18h.56l-13.52-13.52c-16.95,16.95-16.94,44.43,0,61.37h0Z"/>
          <polygon class="cls-11" points="75 74.41 75 74.41 61.48 60.89 61.48 60.88 61.48 60.89 75 74.41"/>
          <polygon class="cls-14" points="61.49 122.24 70.27 113.47 70.27 113.47 61.49 122.24"/>
          <path class="cls-12" d="M70.82,76.51l-.05.09h0l-.05.09h0l-.05.09h0l-.12.28h0l-.07.2-.03.09h0l-.03.1h0l-.03.1h0l-.02.1h0l-.02.1h0l-.02.1h0l-.02.1h0v.1h-.01v.11h-.01v.1h0v.11h0v.11h0v.11h0v34.89l-8.77,8.77c-5.03-5.03-8.57-10.99-10.61-17.32h0c-.22-.67-.41-1.34-.6-2.01h0l-.26-1.02h0l-.24-1.02h0c-.08-.34-.14-.68-.21-1.02h0l-.19-1.03h0c-.06-.34-.11-.69-.16-1.03h0l-.14-1.03h0c-.04-.35-.08-.69-.11-1.04h0l-.09-1.04h0l-.06-1.04h0l-.04-1.04h0c-.17-7.29,1.48-14.61,4.95-21.23h0c.99-1.89,2.13-3.72,3.42-5.48h0l.66-.87h0c.45-.58.91-1.15,1.39-1.7h0c.24-.28.48-.56.73-.83h0c.5-.55,1.01-1.09,1.54-1.62l13.52,13.52h-.56c-1.55,0-2.91.85-3.63,2.11"/>
          <path class="cls-8" d="M61.49,122.26c2.31,2.32,4.82,4.31,7.48,6l6.04-5.3h8.67l-2.22,3.93h10.7v-5.72h-17.72c-2.31,0-4.19-1.87-4.19-4.18v-3.5l-8.77,8.77h.01Z"/>
          <path class="cls-10" d="M61.49,122.26c2.31,2.32,4.82,4.31,7.48,6l6.04-5.3h8.67l-2.22,3.93h10.7v-5.72h-17.72c-2.31,0-4.19-1.87-4.19-4.18v-3.5l-8.77,8.77h.01Z"/>
          <path class="cls-9" d="M61.49,122.26c2.31,2.32,4.82,4.31,7.48,6l6.04-5.3h8.67l-2.22,3.93h10.7v-5.72h-17.72c-2.31,0-4.19-1.87-4.19-4.18v-3.5l-8.77,8.77h.01Z"/>
          <path class="cls-11" d="M61.49,122.26c2.31,2.32,4.82,4.31,7.48,6l6.04-5.3h8.67l-2.22,3.93h10.7v-5.72h-17.72c-2.31,0-4.19-1.87-4.19-4.18v-3.5l-8.77,8.77h.01Z"/>
          <path class="cls-2" d="M61.49,122.26c2.31,2.32,4.82,4.31,7.48,6l6.04-5.3h8.67l-2.22,3.93h10.7v-5.72h-17.72c-2.31,0-4.19-1.87-4.19-4.18v-3.5l-8.77,8.77h.01Z"/>
          <path class="cls-11" d="M81.47,126.89l2.21-3.93h-8.67l-6.04,5.3-.12-.08h0l-.12-.08h0l-.12-.08h0l-.12-.08h0l-.12-.08h0l-.25-.16h0l-.25-.17h0l-.25-.17h0l-.24-.17h0l-.12-.09h0l-.12-.09h0l-.24-.17h0l-.24-.17h0l-.48-.35h0c-.28-.21-.56-.42-.83-.64h0c-1.33-1.05-2.62-2.19-3.85-3.43l8.77-8.77v3.5h0v.11h0v.11h0v.11h0v.11h0v.1h.01v.1h.01l.02.1h0l.02.1h0l.02.1h0l.02.1h0l.03.1h0l.03.1h0l.03.1h0l.03.1h0l.04.09h0l.04.09h0l.04.09h0l.04.09h0l.05.09h0l.05.09h0l.05.09c.12.2.25.4.4.58h0l.13.15h0c.18.2.38.38.59.54h0c.13.1.28.19.42.28h0c.61.35,1.33.56,2.08.56h17.72v5.72h-10.69.02Z"/>
          <path class="cls-8" d="M61.49,122.26c2.31,2.32,4.82,4.31,7.48,6l6.04-5.3h8.67l-2.22,3.93h10.7v-5.72h-17.72c-2.31,0-4.19-1.87-4.19-4.18v-3.5l-8.77,8.77h.01Z"/>
          <path class="cls-7" d="M61.49,122.26c2.31,2.32,4.82,4.31,7.48,6l6.04-5.3h8.67l-2.22,3.93h10.7v-5.72h-17.72c-2.31,0-4.19-1.87-4.19-4.18v-3.5l-8.77,8.77h.01Z"/>
          <path class="cls-9" d="M61.49,122.26c2.31,2.32,4.82,4.31,7.48,6l6.04-5.3h8.67l-2.22,3.93h10.7v-5.72h-17.72c-2.31,0-4.19-1.87-4.19-4.18v-3.5l-8.77,8.77h.01Z"/>
          <path class="cls-11" d="M61.49,122.26c2.31,2.32,4.82,4.31,7.48,6l6.04-5.3h8.67l-2.22,3.93h10.7v-5.72h-17.72c-2.31,0-4.19-1.87-4.19-4.18v-3.5l-8.77,8.77h.01Z"/>
          <path class="cls-2" d="M61.49,122.26c2.31,2.32,4.82,4.31,7.48,6l6.04-5.3h8.67l-2.22,3.93h10.7v-5.72h-17.72c-2.31,0-4.19-1.87-4.19-4.18v-3.5l-8.77,8.77h.01Z"/>
          <path class="cls-11" d="M81.47,126.89l2.21-3.93h-8.67l-6.04,5.3-.12-.08h0l-.12-.08h0l-.12-.08h0l-.12-.08h0l-.12-.08h0l-.25-.16h0l-.25-.17h0l-.25-.17h0l-.24-.17h0l-.12-.09h0l-.12-.09h0l-.24-.17h0l-.24-.17h0l-.48-.35h0c-.28-.21-.56-.42-.83-.64h0c-1.33-1.05-2.62-2.19-3.85-3.43l8.77-8.77v3.5h0v.11h0v.11h0v.11h0v.11h0v.1h.01v.1h.01l.02.1h0l.02.1h0l.02.1h0l.02.1h0l.03.1h0l.03.1h0l.03.1h0l.03.1h0l.04.09h0l.04.09h0l.04.09h0l.04.09h0l.05.09h0l.05.09h0l.05.09c.12.2.25.4.4.58h0l.13.15h0c.18.2.38.38.59.54h0c.13.1.28.19.42.28h0c.61.35,1.33.56,2.08.56h17.72v5.72h-10.69.02Z"/>
          <path class="cls-8" d="M79.35,116.19c2.39,0,4.34-1.95,4.34-4.34s-1.95-4.34-4.34-4.34-4.34,1.95-4.34,4.34,1.95,4.34,4.34,4.34Z"/>
          <path class="cls-10" d="M79.35,116.19c2.39,0,4.34-1.95,4.34-4.34s-1.95-4.34-4.34-4.34-4.34,1.95-4.34,4.34,1.95,4.34,4.34,4.34Z"/>
          <path class="cls-9" d="M79.35,116.19c2.39,0,4.34-1.95,4.34-4.34s-1.95-4.34-4.34-4.34-4.34,1.95-4.34,4.34,1.95,4.34,4.34,4.34Z"/>
          <path class="cls-11" d="M79.35,116.19c2.39,0,4.34-1.95,4.34-4.34s-1.95-4.34-4.34-4.34-4.34,1.95-4.34,4.34,1.95,4.34,4.34,4.34Z"/>
          <path class="cls-2" d="M79.35,116.19c2.39,0,4.34-1.95,4.34-4.34s-1.95-4.34-4.34-4.34-4.34,1.95-4.34,4.34,1.95,4.34,4.34,4.34Z"/>
          <path class="cls-5" d="M75.59,114.01l-.05-.09h0l-.05-.09h0l-.05-.09h0l-.09-.19h0l-.08-.2h0l-.04-.1h0l-.03-.1h0l-.03-.1h0l-.03-.1h0l-.03-.1h0l-.02-.11h0l-.02-.11h0l-.02-.11h0l-.02-.11h0v-.11h-.01v-.11h0v-.11h0v-.11h0v-.11h0v-.11h0v-.11h0v-.11h0v-.11h0v-.11h.01l.02-.11h0l.02-.11h0l.02-.11h0l.02-.11h0l.03-.1h0l.03-.1h0l.03-.1h0l.03-.1h0l.04-.1h0l.04-.1h0l.04-.1h0l.04-.1h0l.04-.09h0l.05-.09h0l.05-.09h0l.05-.09c.75-1.3,2.15-2.18,3.76-2.18s3.08.92,3.81,2.27h0l.05.09h0c.06.13.12.25.17.38h0l.11.3h0l.06.21h0c.09.35.14.71.14,1.09v.11h0v.11h0v.11h0v.11h0v.11h-.01v.11h-.01l-.02.11h0l-.02.11h0l-.02.11h0l-.03.1h0l-.03.1h0l-.03.1h0l-.03.1h0l-.03.1h0v.02l-.06.17h0s-.04.1-.04.1h0l-.04.1h0l-.05.09h0l-.05.09h0l-.05.09h0l-.05.09h0l-.05.09h0l-.06.09h0l-.06.09h0l-.12.17h0c-.09.11-.18.21-.27.31h0l-.07.07h0l-.23.21h0c-.76.66-1.75,1.06-2.84,1.06-1.6,0-3.01-.88-3.76-2.18"/>
          <path class="cls-8" d="M79.35,116.19c2.39,0,4.34-1.95,4.34-4.34s-1.95-4.34-4.34-4.34-4.34,1.95-4.34,4.34,1.95,4.34,4.34,4.34Z"/>
          <path class="cls-7" d="M79.35,116.19c2.39,0,4.34-1.95,4.34-4.34s-1.95-4.34-4.34-4.34-4.34,1.95-4.34,4.34,1.95,4.34,4.34,4.34Z"/>
          <path class="cls-9" d="M79.35,116.19c2.39,0,4.34-1.95,4.34-4.34s-1.95-4.34-4.34-4.34-4.34,1.95-4.34,4.34,1.95,4.34,4.34,4.34Z"/>
          <path class="cls-11" d="M79.35,116.19c2.39,0,4.34-1.95,4.34-4.34s-1.95-4.34-4.34-4.34-4.34,1.95-4.34,4.34,1.95,4.34,4.34,4.34Z"/>
          <path class="cls-2" d="M79.35,116.19c2.39,0,4.34-1.95,4.34-4.34s-1.95-4.34-4.34-4.34-4.34,1.95-4.34,4.34,1.95,4.34,4.34,4.34Z"/>
          <path class="cls-5" d="M75.59,114.01l-.05-.09h0l-.05-.09h0l-.05-.09h0l-.09-.19h0l-.08-.2h0l-.04-.1h0l-.03-.1h0l-.03-.1h0l-.03-.1h0l-.03-.1h0l-.02-.11h0l-.02-.11h0l-.02-.11h0l-.02-.11h0v-.11h-.01v-.11h0v-.11h0v-.11h0v-.11h0v-.11h0v-.11h0v-.11h0v-.11h0v-.11h.01l.02-.11h0l.02-.11h0l.02-.11h0l.02-.11h0l.03-.1h0l.03-.1h0l.03-.1h0l.03-.1h0l.04-.1h0l.04-.1h0l.04-.1h0l.04-.1h0l.04-.09h0l.05-.09h0l.05-.09h0l.05-.09c.75-1.3,2.15-2.18,3.76-2.18s3.08.92,3.81,2.27h0l.05.09h0c.06.13.12.25.17.38h0l.11.3h0l.06.21h0c.09.35.14.71.14,1.09v.11h0v.11h0v.11h0v.11h0v.11h-.01v.11h-.01l-.02.11h0l-.02.11h0l-.02.11h0l-.03.1h0l-.03.1h0l-.03.1h0l-.03.1h0l-.03.1h0v.02l-.06.17h0s-.04.1-.04.1h0l-.04.1h0l-.05.09h0l-.05.09h0l-.05.09h0l-.05.09h0l-.05.09h0l-.06.09h0l-.06.09h0l-.12.17h0c-.09.11-.18.21-.27.31h0l-.07.07h0l-.23.21h0c-.76.66-1.75,1.06-2.84,1.06-1.6,0-3.01-.88-3.76-2.18"/>
          <path class="cls-8" d="M92.17,78.83h-15.14c-1.12,0-2.02.9-2.02,2.02v14.93c0,1.11.9,2.01,2.02,2.01h15.14v-18.95h0Z"/>
          <path class="cls-10" d="M92.17,78.83h-15.14c-1.12,0-2.02.9-2.02,2.02v14.93c0,1.11.9,2.01,2.02,2.01h15.14v-18.95h0Z"/>
          <path class="cls-9" d="M92.17,78.83h-15.14c-1.12,0-2.02.9-2.02,2.02v14.93c0,1.11.9,2.01,2.02,2.01h15.14v-18.95h0Z"/>
          <path class="cls-11" d="M92.17,78.83h-15.14c-1.12,0-2.02.9-2.02,2.02v14.93c0,1.11.9,2.01,2.02,2.01h15.14v-18.95h0Z"/>
          <path class="cls-2" d="M92.17,78.83h-15.14c-1.12,0-2.02.9-2.02,2.02v14.93c0,1.11.9,2.01,2.02,2.01h15.14v-18.95h0Z"/>
          <path class="cls-11" d="M75.13,96.47l-.02-.04h0l-.02-.05h0v-.05h-.01v-.05h-.01v-.05h-.01v-.05h-.01v-.05h0v-.05h0v-.05h0v-.05h0v-.05h0v-.05h0v-.05h0v-.05h0v-14.93h0v-.05h0v-.05h0v-.05h0v-.05h0v-.05h0v-.05h0v-.05h0v-.05h0v-.05h.01v-.05h.01v-.05h.01l.03-.1h0l.02-.05.06-.14h0c.32-.7,1.02-1.19,1.84-1.19h15.14v18.95h-15.14c-.87,0-1.61-.55-1.9-1.32"/>
          <path class="cls-8" d="M92.17,78.83h-15.14c-1.12,0-2.02.9-2.02,2.02v14.93c0,1.11.9,2.01,2.02,2.01h15.14v-18.95h0Z"/>
          <path class="cls-7" d="M92.17,78.83h-15.14c-1.12,0-2.02.9-2.02,2.02v14.93c0,1.11.9,2.01,2.02,2.01h15.14v-18.95h0Z"/>
          <path class="cls-9" d="M92.17,78.83h-15.14c-1.12,0-2.02.9-2.02,2.02v14.93c0,1.11.9,2.01,2.02,2.01h15.14v-18.95h0Z"/>
          <path class="cls-11" d="M92.17,78.83h-15.14c-1.12,0-2.02.9-2.02,2.02v14.93c0,1.11.9,2.01,2.02,2.01h15.14v-18.95h0Z"/>
          <path class="cls-2" d="M92.17,78.83h-15.14c-1.12,0-2.02.9-2.02,2.02v14.93c0,1.11.9,2.01,2.02,2.01h15.14v-18.95h0Z"/>
          <path class="cls-11" d="M75.13,96.47l-.02-.04h0l-.02-.05h0v-.05h-.01v-.05h-.01v-.05h-.01v-.05h-.01v-.05h0v-.05h0v-.05h0v-.05h0v-.05h0v-.05h0v-.05h0v-.05h0v-14.93h0v-.05h0v-.05h0v-.05h0v-.05h0v-.05h0v-.05h0v-.05h0v-.05h0v-.05h.01v-.05h.01v-.05h.01l.03-.1h0l.02-.05.06-.14h0c.32-.7,1.02-1.19,1.84-1.19h15.14v18.95h-15.14c-.87,0-1.61-.55-1.9-1.32"/>
        </g>
      </g>
    </g>
  </g>
</svg>